<?xml version="1.0" encoding="utf-8"?>
<!-- Generator: Adobe Illustrator 15.0.0, SVG Export Plug-In . SVG Version: 6.00 Build 0)  -->
<!DOCTYPE svg PUBLIC "-//W3C//DTD SVG 1.1//EN" "http://www.w3.org/Graphics/SVG/1.1/DTD/svg11.dtd">
<svg version="1.1" id="Layer_1" xmlns="http://www.w3.org/2000/svg" xmlns:xlink="http://www.w3.org/1999/xlink" x="0px" y="0px"
	 width="1000px" height="1000px" viewBox="0 0 1000 1000" enable-background="new 0 0 1000 1000" xml:space="preserve">
<g id="Layer_1_1_">
</g>
<path id="brush" fill="#0C0C0C" d="M504.973,749.52c0-69.158-56.142-125.197-125.284-125.197
	c-69.155,0-125.196,56.039-125.196,125.197l0.091,0.092c-0.091,92.635-50.433,173.438-125.193,216.729l0.378,0.459
	C166.536,987.895,209.104,1000,254.583,1000c138.324,0,250.482-112.17,250.482-250.479L504.973,749.52L504.973,749.52z
	 M853.182,276.161c-36.664-36.675-96.143-36.675-132.807,0l-267.67,267.623c62.016,22.092,110.809,70.909,132.797,132.912
	l267.68-267.726C889.891,372.292,889.891,312.836,853.182,276.161z"/>
</svg>
