<?xml version="1.0" encoding="utf-8"?>
<!-- Generator: Adobe Illustrator 15.0.0, SVG Export Plug-In . SVG Version: 6.00 Build 0)  -->
<!DOCTYPE svg PUBLIC "-//W3C//DTD SVG 1.1//EN" "http://www.w3.org/Graphics/SVG/1.1/DTD/svg11.dtd">
<svg version="1.1" id="Layer_1" xmlns="http://www.w3.org/2000/svg" xmlns:xlink="http://www.w3.org/1999/xlink" x="0px" y="0px"
	 width="1000px" height="1000px" viewBox="0 0 1000 1000" enable-background="new 0 0 1000 1000" xml:space="preserve">
<g id="Layer_1_1_">
</g>
<g id="chat">
	<path fill="#010101" d="M687.408,531.25V437.5C687.408,308.056,593.75,250,500,250H312.408C218.75,250,125,299.805,125,437.5
		C125,572.266,218.75,625,312.408,625h21.79c-13.264,25.771-21.79,56.396-21.79,93.75v93.75c0,103.546,84.046,187.5,187.592,187.5
		c0-51.818,42.021-93.75,93.75-93.75h93.658C781.25,906.25,875,853.516,875,718.75C875,581.055,781.25,531.25,687.408,531.25z
		 M312.408,531.25c-93.658,0-93.658-70.599-93.658-93.75c0-28.106,0-93.75,93.658-93.75H500c35.064,0,93.75,12.188,93.75,93.75
		v93.75c0,30.636-14.74,57.919-37.721,75.027c-34.24-45.547-88.633-75.027-149.779-75.027H312.408z M687.408,812.5H593.75
		c-61.249,0-115.734,29.48-149.952,74.981c-22.808-17.12-37.548-44.403-37.548-74.981v-93.75c0-42.893,21.332-68.939,42.561-82.316
		C478.862,652.1,500,682.587,500,718.75c69.307,0,129.09-37.994,161.591-93.842c-0.092,0.046-0.092,0.046-0.092,0.046L687.408,625
		c93.842,0,93.842,65.689,93.842,93.75C781.25,741.959,781.25,812.5,687.408,812.5z M680.908,577.986
		c-0.641,2.152-1.373,4.259-2.014,6.353C679.535,582.245,680.359,580.139,680.908,577.986z"/>
</g>
</svg>
