<?xml version="1.0" encoding="utf-8"?>
<!-- Generator: Adobe Illustrator 15.0.0, SVG Export Plug-In . SVG Version: 6.00 Build 0)  -->
<!DOCTYPE svg PUBLIC "-//W3C//DTD SVG 1.1//EN" "http://www.w3.org/Graphics/SVG/1.1/DTD/svg11.dtd">
<svg version="1.1" id="Layer_1" xmlns="http://www.w3.org/2000/svg" xmlns:xlink="http://www.w3.org/1999/xlink" x="0px" y="0px"
	 width="1000px" height="1000px" viewBox="0 0 1000 1000" enable-background="new 0 0 1000 1000" xml:space="preserve">
<path fill="#050606" d="M859.99,566.467c-7.105-8.475-14.604-11.277-20.729-13.07c-6.258-1.662-11.994-2.117-17.959-2.117
	l-206.608-0.131c-1.923,0.131-6.355-1.174-10.038-4.041c-3.781-2.805-6.16-6.682-6.584-8.541l-59.842-215.115
	c-1.988-6.779-4.173-12.906-8.671-19.557c-4.105-5.996-13.135-16.003-29.562-16.395c-16.329,0.326-25.455,10.332-29.562,16.395
	c-4.498,6.715-6.714,12.843-8.604,19.621L401.99,538.502c-0.393,1.891-2.869,5.801-6.617,8.539
	c-3.65,2.869-8.083,4.172-10.006,4.105l-206.642,0.066c-7.953,0.129-15.386,0.65-24.381,4.465
	c-4.433,1.988-9.646,5.051-14.242,10.725c-4.661,5.475-7.855,14.016-7.726,21.674c0.261,12.256,5.41,19.719,9.647,24.902
	c4.498,5.246,9.19,8.963,14.472,12.449l166.519,109.74c2.968,1.271,8.183,10.496,7.726,16.689c0,1.531-0.195,2.77-0.456,3.717
	l-64.73,212.117c-1.792,6.127-3.16,12.059-3.227,19.295c0.098,6.061,0.814,13.947,6.941,22.814
	c5.933,9.125,19.101,14.828,28.097,14.275c17.014-0.912,24.119-7.627,32.527-14.016l162.805-138.619
	c1.336-1.238,4.726-2.674,8.538-2.674c3.685,0,6.91,1.305,8.246,2.479l171.604,139.76c8.507,6.16,15.481,12.549,32.104,13.461
	c0.393,0,0.815,0.033,1.206,0.033c8.572,0,20.566-5.184,26.435-13.854c6.258-8.801,7.04-16.816,7.104-22.75
	c-0.064-7.789-1.598-14.016-3.781-20.631l-72.748-213.455c-0.325-0.912-0.555-2.215-0.555-3.846
	c-0.424-5.736,4.303-13.949,7.008-15.123L843.53,625.49c5.28-3.488,10.007-7.236,14.505-12.482c4.172-5.217,9.354-12.646,9.583-24.9
	C867.812,580.48,864.618,571.941,859.99,566.467z"/>
</svg>
