<?xml version="1.0" encoding="iso-8859-1"?>
<!-- Generator: Adobe Illustrator 15.0.0, SVG Export Plug-In . SVG Version: 6.00 Build 0)  -->
<!DOCTYPE svg PUBLIC "-//W3C//DTD SVG 1.1 Tiny//EN" "http://www.w3.org/Graphics/SVG/1.1/DTD/svg11-tiny.dtd">
<svg version="1.1" baseProfile="tiny" id="Layer_1" xmlns="http://www.w3.org/2000/svg" xmlns:xlink="http://www.w3.org/1999/xlink"
	 x="0px" y="0px" width="612px" height="792px" viewBox="0 0 612 792" overflow="inherit" xml:space="preserve">
<g id="Icon_1">
	<g>
		<circle cx="50" cy="291" r="3"/>
	</g>
	<g>
		<path d="M62.584,295.277l-2.168,1.445C60.187,296.875,60,297.225,60,297.5v1c0,0.275,0.187,0.625,0.416,0.777l2.168,1.445
			C62.813,300.875,63,300.775,63,300.5v-5C63,295.225,62.813,295.125,62.584,295.277z"/>
	</g>
	<g>
		<path d="M54.557,293h-1.113c-0.694,1.19-1.97,2-3.443,2c-0.347,0-0.679-0.059-1-0.142v5.642c0,0.275,0.225,0.5,0.5,0.5H52l-2,3h1
			l3-3l3,3h1l-2-3h2.5c0.275,0,0.5-0.225,0.5-0.5v-5.642c-0.321,0.083-0.653,0.142-1,0.142C56.526,295,55.25,294.19,54.557,293z"/>
	</g>
	<g>
		<circle cx="58" cy="291" r="3"/>
	</g>
</g>
</svg>
