<?xml version="1.0" encoding="utf-8"?>
<!-- Generator: Adobe Illustrator 15.0.0, SVG Export Plug-In . SVG Version: 6.00 Build 0)  -->
<!DOCTYPE svg PUBLIC "-//W3C//DTD SVG 1.1//EN" "http://www.w3.org/Graphics/SVG/1.1/DTD/svg11.dtd">
<svg version="1.1" id="Layer_1" xmlns="http://www.w3.org/2000/svg" xmlns:xlink="http://www.w3.org/1999/xlink" x="0px" y="0px"
	 width="1000px" height="1000px" viewBox="-484 -484 1000 1000" enable-background="new -484 -484 1000 1000" xml:space="preserve">
		<path fill="#010101" d="M16-140.25c155.09,0,281.25,126.16,281.25,281.25S171.09,422.25,16,422.25S-265.25,296.09-265.25,141
			S-139.09-140.25,16-140.25 M16-234c-207.092,0-375,167.908-375,375s167.908,375,375,375s375-167.908,375-375S223.092-234,16-234
			L16-234z"/>
<path fill="#010101" d="M143.075,201.425l-80.2-80.303V-46.5h-94.288v187.316c0,14.1,6.489,26.276,16.285,34.974l91.919,91.919
	L143.075,201.425z"/>
</svg>
