<?xml version="1.0" encoding="utf-8"?>
<!-- Generator: Adobe Illustrator 15.0.0, SVG Export Plug-In . SVG Version: 6.00 Build 0)  -->
<!DOCTYPE svg PUBLIC "-//W3C//DTD SVG 1.1//EN" "http://www.w3.org/Graphics/SVG/1.1/DTD/svg11.dtd">
<svg version="1.1" id="Layer_1" xmlns="http://www.w3.org/2000/svg" xmlns:xlink="http://www.w3.org/1999/xlink" x="0px" y="0px"
	 width="1000px" height="1000px" viewBox="0 0 1000 1000" enable-background="new 0 0 1000 1000" xml:space="preserve">
<g>
	<polygon fill="#231F20" points="345.395,671.739 347.027,670.082 338.431,673.831 	"/>
	<polygon fill="#231F20" points="390.238,550.117 390.25,550.117 390.212,549.964 	"/>
	<polygon fill="#231F20" points="591.471,747.83 593.104,746.172 584.508,749.948 	"/>
	<polygon fill="#231F20" points="637.871,465.378 637.922,465.43 637.871,465.251 	"/>
	<path fill="#231F20" d="M909.939,707.782l-1.989-1.912l-2.601-1.735l-2.424-1.505l-2.22-1.812l-1.429-2.066l-0.305-2.729
		l1.224-3.418l-2.602-0.867l-2.066,0.484l-1.734,1.25l-1.531,1.785l-1.734,1.684l-1.709,1.453l-2.092,0.689l-2.32-0.307
		l-1.021-1.377l-1.326-0.994l-1.429-0.971l-1.224-0.738l-1.25-0.971l-0.74-0.969l-0.254-1.097l0.535-1.3l-1.327-0.307l-1.326,0.229
		l-1.428,0.484l-1.429,0.562l-1.505,0.332l-1.326,0.255l-1.429-0.434l-1.199-0.943l1.913-2.576l1.606-2.551l1.48-2.756l1.505-2.652
		l1.402-2.678l1.633-2.552l1.965-2.32l2.396-2.041l-0.713-1.633l-0.664-1.301l-0.867-1.198l-0.943-0.97l-1.098-0.97l-1.198-0.739
		l-1.326-0.638l-1.353-0.408l-3.29,0.051l-2.525,1.02l-2.168,1.685l-1.709,2.244l-1.837,2.118l-1.709,2.219l-2.143,1.785
		l-2.628,1.148l-0.484-1.863l-0.383-1.633l-0.331-1.631l-0.357-1.429l-0.561-1.53l-0.485-1.326l-0.765-1.276l-0.791-1.198
		l-1.327,0.127l-0.969,0.459l-0.868,0.664l-0.611,1.02l-0.688,0.97l-0.536,1.122l-0.638,1.021l-0.485,1.071h-4.412l-4.311,0.714
		l-4.209,1.174l-3.929,1.709l-4.03,1.837l-3.724,2.168l-3.674,2.346l-3.393,2.475l-0.765-1.07l-1.097-0.434l-1.326-0.205
		l-1.327,0.025l-1.199-0.076l-0.892-0.306l-0.358-0.868l0.307-1.555l2.168-2.576l2.5-1.99l2.475-1.811l2.831-1.404l2.832-1.121
		l2.958-0.816l3.163-0.484l3.418-0.076l-7.295-1.939l2.016-4.031l2.805-2.754l3.266-2.143l3.725-1.378l3.826-0.944l4.029-0.433
		l3.954-0.179l3.954,0.179l0.765-1.454l1.2-0.995l1.198-0.815l1.402-0.459l1.429-0.562l1.505-0.485l1.302-0.561l1.454-0.561
		l2.856-0.053l2.831,0.944l2.679,1.582l2.78,1.912l2.449,1.403l2.524,0.918l2.398-0.356l2.397-1.685l0.994-0.152l0.894-0.307
		l0.511-0.892l0.51-0.894l0.204-1.198l0.229-1.199l0.229-1.225l0.255-0.867l-0.765-1.429l-0.689-1.633l-0.688-1.76l-0.689-1.504
		l-1.122-1.404l-1.224-0.766l-1.761-0.178l-2.066,0.919l-1.122-0.766l-0.561-0.765l-0.128-0.97l0.179-0.894l0.382-0.994l0.409-0.867
		l0.408-1.02l0.306-0.664l-1.658,0.357l-1.275,1.122l-1.097,1.454l-0.943,1.861l-1.148,1.685l-1.224,1.683l-1.607,1.353
		l-1.862,0.892l-0.994-1.835l-0.894-0.766l-1.098-0.103l-1.096,0.459l-1.199,0.357l-0.995,0.025l-0.994-0.637l-0.791-1.633
		l-6.53,3.393l-0.025-1.965l-0.332-1.224l-0.688-0.715l-0.688-0.459l-0.995-0.511l-0.994-0.407l-0.894-0.765l-0.791-1.098
		l-1.938,1.479l-1.837,2.116l-1.837,2.194l-1.709,2.144l-1.964,1.555l-1.965,0.791l-2.193-0.28l-2.321-1.479l-0.076-4.924
		l-2.552-0.102l-1.836,1.123l-1.504,1.684l-1.072,2.092l-1.25,1.683l-1.326,1.353l-1.761,0.254l-2.219-0.994l-1.53,0.383
		l-1.53,0.357l-1.505,0.254l-1.53,0.23l-1.659-0.076l-1.657-0.179l-1.761-0.306l-1.657-0.408l-4.693-4.541l-1.939,1.377
		l-1.964,1.123l-1.989,0.918l-1.812,0.791l-2.092,0.586l-1.964,0.816l-2.066,0.766l-1.964,1.173l-1.428-0.101l-1.098-0.307
		l-0.994-0.511l-0.689-0.663l-0.688-0.994l-0.434-0.867l-0.332-1.098v-0.97l-2.551,1.353l-2.602,0.816l-2.857,0.484l-2.856,0.408
		l-2.959,0.256l-2.499,0.586l-2.398,1.021l-1.837,1.709l-1.225-0.229l-0.765-0.332l-0.663-0.51l-0.434-0.535l-0.587-0.639
		l-0.587-0.561l-0.637-0.535l-0.766-0.205l0.638-1.658l3.8-1.377l3.955-1.275l3.801-1.506l3.927-1.402l3.699-1.582l3.724-1.606
		l3.699-1.812l3.699-1.836l1.198,0.306l1.454,0.663l1.429,0.383l1.657,0.536l1.531,0.103l1.658-0.154l1.429-0.586l1.504-1.098
		l0.409-0.688l0.892-0.127l0.995,0.102l0.766,0.638l0.714,0.994l0.663,1.174l0.663,0.996l0.791,0.943l0.663,0.663l1.098,0.306
		l1.225-0.025l1.53-0.229l0.229-1.021l0.204-0.969l0.281-0.994l0.28-0.791l0.332-0.971l0.407-0.815l0.435-0.867l0.688-0.663
		l11.402,6.836l1.174-1.122l0.638-1.327l-0.026-1.529v-1.557l-0.128-1.633l0.408-1.301l1.174-1.122l2.22-0.511l0.969,0.103
		l0.995,0.103l0.739-0.129l0.867-0.127l0.816-0.332l0.766-0.332l0.714-0.586l0.995-0.459l2.091-0.025l2.194-0.052l2.296-0.255
		l2.321-0.051h2.092l2.168,0.256l1.888,0.765l1.862,1.377l0.331-1.122l0.562-1.174l0.638-1.352l0.918-0.994l0.995-0.894l1.327-0.483
		l1.3,0.101l1.76,0.843l1.327-0.383l0.969-0.867l0.663-1.429l0.587-1.429l0.562-1.557l0.969-1.25l1.403-0.662l2.092,0.178
		l2.271-2.016l6.683,5.791l0.536-0.867l0.562-0.765l0.382-0.995l0.536-0.893l0.434-0.893l0.766-0.689l0.866-0.434l1.174-0.127
		l-0.867-1.199l-1.225-1.301l-1.479-1.607l-1.098-1.531l-0.791-1.733l-0.179-1.53l0.894-1.557l2.244-1.147l0.077-1.76l0.893-0.995
		l1.173-0.918l1.531-0.459l1.326-0.664l1.071-0.79l0.331-1.353l-0.28-1.734l0.663-0.867l0.739-0.791l0.664-0.688l0.638-0.663
		l0.331-0.766l0.307-0.791v-0.867l-0.179-0.994l-1.734-0.052h-1.861l-2.22-0.05l-1.964-0.103l-2.067-0.511l-1.683-0.714
		l-1.353-1.429l-0.815-1.836l-1.48,2.015l-1.836,1.353l-2.066,0.79l-2.194,0.688l-2.396,0.613l-2.194,0.892l-1.938,1.353
		l-1.658,2.245l-0.663-2.856l-1.709-2.603l-2.117-2.603l-2.015-2.27l-1.48-2.525l-0.255-2.271l1.607-2.346l4.03-2.04l-0.052-1.761
		v-1.734l-0.152-1.888l-0.128-1.633l-0.484-1.76l-0.688-1.403l-1.225-1.402l-1.479-0.97l-3.853-0.918l-2.729,0.815l-2.244,1.914
		l-1.939,2.449l-2.065,2.346l-2.144,1.99l-2.831,0.715l-3.546-0.715l-5.483,5.815l-1.659-0.638l-1.555,0.256l-1.633,0.791
		l-1.403,1.121l-1.505,0.918l-1.531,0.664l-1.657-0.179l-1.658-1.071l-1.836,1.709l-1.837,0.459l-2.144-0.306l-1.938-0.612
		l-2.092-0.74l-2.016,0.025l-1.811,1.021l-1.531,2.347l-0.995-0.766l-0.766-0.764l-0.918-0.843l-0.765-0.766l-1.021-0.739
		l-0.995-0.561l-1.198-0.409l-1.326,0.052l-0.154-1.199v-1.123l0.205-1.197l0.306-1.225l0.307-1.326l0.535-1.226l0.536-1.071
		l0.739-1.021l1.76,0.511l1.889,0.969l1.888,0.918l1.964,0.97l1.785,0.739l1.888,0.741l1.862,0.306l1.989,0.178l2.041-2.779
		l3.035-1.582l3.495-1.07l3.953-0.613l3.598-1.02l3.392-1.506l2.448-2.678l1.607-3.98l0.612-1.989l1.531-1.453l1.734-1.353
		l2.168-1.147l1.861-1.327l1.709-1.352l1.072-1.785l0.382-2.092l-0.663-1.837l-0.28-1.683l-0.204-1.607l-0.076-1.454v-1.505
		l-0.026-1.429l-0.025-1.556l0.077-1.531l-1.862-0.307l-1.633,0.461l-1.76,0.815l-1.761,1.122l-1.709,0.919l-1.733,0.79
		l-1.889,0.256l-1.861-0.383l-0.867,0.562l-0.868,0.535l-1.071,0.356l-1.097,0.23l-1.25-0.943l-0.765-0.996l-0.587-1.071
		l-0.331-0.994l-0.357-1.098l-0.229-1.07l-0.357-1.021l-0.357-0.715l-2.475,1.658l-2.474,1.913l-2.627,1.582l-2.653,1.479
		l-2.908,0.918l-2.831,0.408l-3.111-0.281l-2.959-0.943l-1.76,1.454l-1.812,1.557l-2.271,1.479l-2.219,1.581l-2.475,1.353
		l-2.27,1.479l-2.398,1.556l-2.066,1.709l-1.76-1.632l-0.894,0.664l-0.867,0.994l-1.07,1.121l-1.072,1.021l-1.326,0.688
		l-1.147,0.435l-1.454-0.052l-1.327-0.765l-1.428-0.944l-1.353-0.842l-1.453-0.969l-1.199-0.97l-1.353-1.198l-0.994-1.199
		l-0.918-1.301l-0.46-1.301l3.495-1.709l3.443-1.709l3.393-1.939l3.469-2.015l3.266-2.372l3.239-2.347l3.29-2.474l3.342-2.475
		l2.194,0.943l2.091,0.076l1.965-0.815l1.964-0.918l1.735-1.021l1.963-0.356l1.888,0.51l2.117,1.938l0.562-0.663l0.739-0.331
		l0.867-0.358l0.894-0.024h0.739l0.894,0.307l0.791,0.306l0.739,0.662l-1.658-3.927l3.035-1.48l3.367-1.25l3.623-1.173l3.928-1.174
		l3.826-1.147l3.928-1.174l3.699-1.173l3.852-1.147l1.377-1.812l1.505-1.76l1.302-2.016l1.301-1.99l0.893-2.193l0.74-2.116
		l0.433-1.965l0.154-1.888h-0.842l-0.894,0.153l-0.867,0.102l-0.867,0.154l-0.994-0.102l-0.791-0.332l-0.664-0.612l-0.459-0.995
		l-0.356-0.995l0.103-0.995l0.331-0.994l0.306-0.97l0.179-0.995l-0.103-0.994l-0.459-0.894l-1.122-0.713l-1.505,0.459l-1.327,1.02
		l-1.274,1.224l-1.326,1.224l-1.25,0.791l-1.378,0.587l-1.403-0.102l-1.326-1.071l-2.321,0.153l-2.194-0.408l-2.193-1.174
		l-2.143-1.072l-2.193-1.172l-2.22-0.485l-2.168,0.127l-2.193,1.378l-2.423,0.255l-2.169-0.306l-2.193-0.715l-1.913-0.637
		l-1.862-0.383l-1.53,0.357l-1.326,1.225l-0.791,2.754l-3.341-1.606l-0.639,0.586l-0.127,0.868l-0.077,0.892l0.229,0.867
		l-0.076,0.791l-0.102,0.868l-0.536,0.535l-0.867,0.587l-0.715-1.633l-0.663-1.657l-0.815-1.863l-0.689-1.505l-1.122-1.504
		l-1.199-1.072l-1.684-0.663l-1.963,0.152l-3.138,1.276l-2.067,2.22l-1.53,2.55l-1.02,2.883l-1.25,2.755l-1.531,2.551l-2.142,2.015
		l-2.832,1.25l-0.46,1.02l-0.254,1.326l-0.307,1.276l-0.229,1.453l-0.484,1.25l-0.663,0.97l-1.071,0.688l-1.454,0.356l-2.627,0.153
		l-2.194,1.046l-2.041,1.428l-1.938,1.812l-2.067,1.659l-1.938,1.683l-2.144,1.122l-2.448,0.715l-1.25-1.633l2.143-2.984
		l1.836-3.341l1.709-3.418l1.658-3.419l1.709-3.341l2.271-2.985l2.807-2.474l3.597-1.607l0.51-2.22l1.632-1.785l2.041-1.659
		l2.168-1.479l1.53-1.582l0.638-1.403l-1.02-1.53l-3.01-1.607l-0.332-1.072l0.076-0.765l0.332-0.663l0.638-0.357l0.663-0.459
		l0.663-0.409l0.511-0.611l0.663-0.663l3.622-0.715l3.163,0.51l2.652,1.173l2.704,1.454l2.423,1.174l2.755,0.714l2.934-0.485
		l3.597-1.938l0.867-1.429l0.511-1.556l0.076-1.657l0.103-1.531l-0.051-1.633l0.407-1.428l0.639-1.429l1.198-1.02l0.943-2.449
		l0.052-2.194l-0.639-2.066l-1.02-1.862l-1.046-1.939l-0.484-1.734l0.306-1.888l1.607-1.785l-0.663-1.965l0.05-1.453l0.536-1.2
		l1.021-0.892l0.918-0.893l1.226-0.893l0.842-1.123l0.611-1.224l-2.576-10.917l-1.633,0.229l-1.76,0.587l-1.761,0.586l-1.632,0.689
		l-1.734,0.127l-1.429-0.305l-1.25-1.2l-0.688-2.193l-0.179-8.213l-3.903,1.733l-0.765-1.07l-0.255-1.224l-0.052-1.429l0.128-1.225
		l-0.152-1.173l-0.332-0.893l-0.766-0.663l-1.326,0.152l-0.766,1.557l-0.739,1.658l-0.739,1.658l-0.639,1.658l-0.714,1.658
		l-0.663,1.658l-0.484,1.761l-0.281,1.989l-1.02-1.173l-1.021-1.225l-0.994-1.402l-0.919-1.302l-1.249-1.429l-1.098-1.172
		l-1.428-1.174l-1.353-0.867l0.153,3.087l-0.74,2.116l-1.581,1.429l-1.861,1.123l-2.22,0.918l-1.888,1.25l-1.428,1.581l-0.537,2.526
		l-1.402,0.254l-1.097,0.357h-1.199h-1.02l-0.944-0.306l-0.995-0.407l-1.02-0.664l-0.894-0.714l-0.638,0.536l-0.663,0.994
		l-0.611,1.02l-0.663,1.098l-0.867,0.892l-0.843,0.765l-1.122,0.562l-1.173,0.255l-1.148-3.035l-0.943-3.189l-0.612-3.367
		l-0.153-3.317l0.051-3.29l0.715-3.188l1.274-3.113l2.016-2.755l1.633-0.485l1.888-0.356l1.837-0.459l1.836-0.383l1.556-0.663
		l1.403-0.817l0.995-1.122l0.714-1.531l0.077-2.092l-0.358-1.198l-0.79-0.74l-0.943-0.23l-1.353-0.28l-1.326-0.204l-1.302-0.638
		l-1.07-1.097l2.882-7.602l-1.021-0.433l-0.637-0.306l-0.689-0.561l-0.306-0.536l-0.485-0.638l-0.102-0.637l-0.025-0.817
		l0.203-0.765l-1.198-0.077l-1.122,0.026l-0.995-0.204l-0.867-0.204l-0.867-0.434l-0.688-0.637l-0.689-0.765l-0.332-0.868
		l-0.076-4.924l-1.76-0.076h-1.658l-1.657,0.026l-1.174,0.382l-1.198,0.434l-0.843,0.893l-0.663,1.326l-0.203,2.092l-0.74,0.663
		l-0.664,0.255l-0.535-0.229l-0.561-0.434l-0.689-0.612l-0.561-0.663l-0.663-0.409l-0.511-0.127l-1.429,12.219l-0.994-0.74
		l-0.943-0.128l-0.894,0.154l-0.739,0.561l-0.842,0.561l-0.74,0.663l-0.663,0.663l-0.536,0.766l-0.408,1.581l0.128,1.633l0.485,1.53
		l0.892,1.633l0.995,1.53l1.25,1.505l1.25,1.505l1.326,1.505l-0.739,0.791l-1.097,0.561l-1.199,0.383l-1.097,0.332l-0.97,0.357
		l-0.459,0.765l0.025,0.969l0.918,1.632l1.123,1.863l1.888,0.944l2.092,0.306l2.32-0.052l2.169-0.152l2.219,0.408l1.785,1.071
		l1.454,2.296l0.128,1.301l0.153,1.301l0.025,1.122v1.2l-0.204,1.096l-0.076,1.122l-0.307,1.072l-0.229,1.326l-2.271,0.051
		l1.658,1.632l1.25,2.041l0.587,2.194l0.357,2.321l0.05,2.271l-0.178,2.449l-0.281,2.295l-0.204,2.296l-0.739,0.816l-0.766,0.307
		l-0.739-0.077l-0.815-0.332l-0.867-0.611l-0.817-0.664l-0.867-0.638l-0.663-0.331l-0.459-1.531l-0.331-1.53l-0.256-1.531
		l-0.255-1.301l-0.459-1.428l-0.689-1.2l-0.995-1.071l-1.351-0.867l-0.995,0.459l-0.842,0.357l-0.995,0.102l-0.893,0.051
		l-0.842-0.305l-0.816-0.562l-0.79-0.765l-0.536-0.867l-0.255-1.863l0.076-1.759l0.076-1.965l0.076-1.964l-0.152-1.99l-0.356-1.76
		l-0.791-1.632l-1.225-1.302l-2.322,0.052l-1.172,2.219l-0.383,2.423l-0.077,2.296l0.256,2.398l0.025,2.245l-0.281,2.041
		l-0.944,2.014l-1.709,1.684l-0.842-1.965l-0.254-2.193l-0.026-2.295l0.103-2.348l-0.383-2.27l-0.689-2.066l-1.606-1.837
		l-2.32-1.173l-0.485,2.628l-0.204,2.78l-0.153,2.602l0.052,2.754l0.025,2.5l0.28,2.55l0.255,2.296l0.612,2.398l-2.271,2.703
		l-1.479-0.637l-0.867-0.994l-0.663-1.276l-0.511-1.326l-0.663-1.429l-0.688-1.174l-1.098-0.867l-1.429-0.408l-1.147,2.449
		l-0.407,2.755l-0.18,2.602l0.28,2.882l0.026,2.73l0.153,2.959l-0.153,2.857l-0.51,2.959l-6.429-5.918l-0.562,1.428l-0.076,1.786
		l0.051,1.964l0.025,1.964l-0.204,1.888l-0.511,1.633l-0.968,1.224l-1.506,0.816l-1.021-1.429l-0.994-1.505l-1.147-1.632
		l-0.995-1.505l-1.353-1.301l-1.326-0.969l-1.479-0.536l-1.402,0.153l0.28,2.959l0.025,3.061l-0.586,2.882l-0.817,2.985
		l-1.402,2.627l-1.709,2.576l-2.041,2.246l-2.372,1.989l-2.118-0.841l-1.428-1.046l-0.918-1.531l-0.562-1.53l-0.484-1.964
		l-0.459-1.863l-0.485-1.861l-0.688-1.531l-0.714,1.352l-0.867,0.663h-1.148l-1.097-0.204l-1.071-0.536l-0.791-0.51l-0.51-0.485
		l0.434,1.479l-0.204,1.76l-0.715,1.658l-0.892,1.684l-0.97,1.632l-0.383,1.76l0.152,1.862l1.123,2.296l-2.066,0.612l-1.733,0.664
		l-1.761,0.815l-1.403,0.996l-1.53,0.892l-1.402,1.021l-1.531,0.892l-1.403,0.944l-1.326,0.204l-1.402-0.076l-1.659-0.281
		l-1.555-0.306l-1.659-0.204l-1.3,0.128l-1.199,0.791l-0.74,1.581l-1.198-0.459l-0.894,0.128l-0.765,0.459l-0.536,0.587
		l-0.637,0.433l-0.663,0.23l-0.791-0.102l-0.894-0.537l-1.25,2.22l-0.739,2.322l-0.51,2.32l-0.153,2.602l-0.434,2.449l-0.256,2.653
		l-0.51,2.627l-0.739,2.781l1.429-0.154l0.994,0.537l0.459,0.866l0.356,1.199l-0.101,1.326l0.051,1.429v1.225l0.229,1.198
		l1.479,2.169l1.811,1.046l1.862-0.128l2.041-0.587l1.989-1.021l2.065-1.045l1.837-0.664l1.888-0.051l0.816-1.862l0.97-1.785
		l0.714-1.862l1.098-1.684l1.046-1.581l1.429-1.226l1.835-0.892l2.449-0.28l0.791,1.326l0.943,0.51h1.021l1.198-0.357l1.174-0.663
		l1.326-0.562l1.326-0.484l1.53,0.076l5.51,1.021l5.714,0.766l5.841,0.561l5.842,0.663l5.484,0.79l5.535,1.429l5.076,1.99
		l4.872,2.983l4.49,5.868l5.688,4.285l6.071,3.06l6.351,2.781l5.74,2.857l5.203,3.647l3.826,4.999l2.322,7.193l-2.246,2.347
		l-1.581-1.964l-1.556-1.403l-1.684-1.071l-1.53-0.638l-1.888-0.51l-1.837-0.076l-2.092-0.052l-2.22,0.357l-0.076,0.867v0.995
		l-0.076,0.79l-0.128,0.867l-0.407,0.664l-0.408,0.791l-0.663,0.535l-0.766,0.562l-2.321-0.816l-2.092-0.97l-2.092-1.173
		l-2.116-1.046l-2.245-1.199l-2.092-0.918l-2.194-0.842l-2.22-0.408l-0.178,0.637l-0.459,0.689l-0.663,0.587l-0.281,0.765
		l-1.913-1.504l-1.76-1.607l-2.015-1.836l-2.016-1.531l-2.22-1.378l-2.193-0.841l-2.448-0.18l-2.5,0.918l-0.74,0.868l-0.867,0.612
		h-0.663l-0.561,0.102l-0.536,0.026l-0.561,0.127l-0.894-1.224l-0.815-1.174l-0.97-1.225l-0.893-1.07l-1.148-1.047l-1.198-0.662
		l-1.429-0.307l-1.429,0.254l-0.076,0.536v0.562l0.103,0.562l0.127,0.663l-0.103,0.867l-0.562,0.765l-1.734,0.052l0.18,1.428
		l-0.23,1.097l-0.663,0.766l-0.842,0.46l-1.224,0.331l-1.098,0.484l-0.994,0.587l-0.639,0.867l-0.994-0.969l-0.867-0.867
		l-0.995-1.072l-0.816-0.969l-1.02-0.995l-0.97-0.638l-1.122-0.408l-1.226,0.103l-1.606,2.703l-8.137-6.784l-0.076,1.733
		l-0.28,1.889l-0.843,1.632l-0.944,1.786l-1.428,1.353l-1.479,1.248l-1.658,0.766l-1.633,0.613l-3.01-1.735l-2.755-0.688
		l-2.856-0.076l-2.627,0.356l-2.755,0.408l-2.704,0.459l-2.755,0.153l-2.755-0.153l-0.97,1.326l-1.174,1.021l-1.301,0.816
		l-1.096,0.867l-0.97,0.714l-0.511,1.071l0.128,1.326l1.097,1.838l1.147,1.504l1.454,1.098l1.531,0.714l1.657,0.435l1.658,0.076
		l1.837,0.076l1.785,0.076l1.862,0.205l1.428-0.051l2.067-0.256l2.219-0.459l2.525-0.152l2.168,0.05l1.913,0.739l1.326,1.506
		l0.715,2.652l1.785,0.74l2.168,0.383l2.322,0.178l2.32,0.179l2.168,0.204l2.092,0.511l1.685,0.842l1.479,1.606l-0.051-0.969
		l3.546,1.224l3.545,1.174l3.521,0.714l3.622,0.256l3.521-0.408l3.469-1.046l3.623-1.709l3.57-2.347l0.995,2.703l1.964,1.734
		l2.296,1.174l2.524,0.944l2.118,0.841l1.76,1.479l0.842,2.296l-0.255,3.52l0.229,2.092l0.715,1.429l0.841,0.739l1.327,0.537
		l1.428-0.025l1.658-0.129l1.658-0.254l1.734-0.256l0.638-2.219l1.071-1.097l1.429-0.587l1.734,0.205l1.658,0.178l1.785,0.51
		l1.53,0.204l1.429-0.024l2.679,1.147l2.525,1.632l2.448,1.378l2.424,1.479l2.449,1.07l2.652,0.715l2.883,0.179l3.265-0.382
		l0.434,1.504l0.383,1.658l0.076,1.76l-0.229,1.761l-0.638,1.53l-0.815,1.453l-1.327,1.123l-1.632,0.893l-2.934,0.714l-2.449-0.179
		l-2.219-0.842l-1.761-1.377l-1.684-1.836l-1.352-1.861l-1.454-1.965l-1.225-1.735l-0.204,0.894l-0.434,0.893l-0.765,0.79
		l-0.842,0.688l-1.072,0.333l-1.02,0.024l-0.995-0.331l-0.894-0.536l-2.678-1.173l-2.423-0.715l-2.525-0.714l-2.424-0.51
		l-2.652-0.51l-2.398-0.511l-2.55-0.715l-2.449-0.714l-0.28,0.867l-0.103,1.225l-0.178,1.072l-0.23,1.224l-0.637,0.892l-0.766,0.689
		l-1.098,0.102l-1.555-0.279l-5.536-3.112l-5.611-1.403l-5.97-0.459l-5.893,0.204h-5.917l-5.842-0.255l-5.484-1.199l-5.229-2.653
		l-2.27,2.348l-2.653-0.077l-2.27-0.281l-2.322-0.637l-2.32-0.484l-2.321-0.638l-2.321-0.153l-2.397,0.153l-2.296,0.815
		l-0.204,1.734l0.484,1.762l0.689,1.656l0.79,1.607l0.434,1.505l0.255,1.556l-0.739,1.354l-1.53,1.428l-2.934,0.051l-2.73,0.051
		l-2.907-0.051l-2.603-0.076l-2.754-0.383l-2.627-0.611l-2.551-0.97l-2.475-1.276l0.943,1.761l0.562,1.862l0.28,1.836l0.23,1.888
		l0.255,1.761l0.587,1.734l1.122,1.632l1.913,1.606l4.693-0.841l4.821-0.331l4.591,0.152l4.771,0.459l4.488,0.587l4.644,0.918
		l4.54,0.894l4.616,0.918l1.531-1.25l1.837-0.893l1.811-0.816l1.99-0.357l1.989-0.255l2.092,0.103l1.989,0.152l1.938,0.663
		l0.816,1.174l0.894,0.868l0.994,0.637l0.995,0.408l0.995,0.205l1.021,0.33l1.071,0.307l1.224,0.638l2.525,0.052l2.628-0.281
		l2.499-0.561l2.652-0.715l2.271-1.122l2.372-1.251l2.065-1.504l2.066-1.326l1.454,5.688l2.475-1.25l2.627-0.254l2.525,0.152
		l2.551,0.51l2.424,0.408l2.652,0.153l2.627-0.255l2.934-0.816l0.919,0.765l0.434,0.97l-0.179,0.867l-0.459,1.021l-0.944,0.995
		l-0.791,0.994l-0.51,0.23l-0.408,0.203l-0.688,0.025l-0.535-0.102l-0.689-0.638l-0.663,1.021l-0.511,1.097l-0.739,1.097
		l-0.638,1.098l-0.867,0.918l-0.842,0.893l-0.995,0.561l-0.893,0.689l-0.969-0.459l-0.689-0.408l-0.765-0.511l-0.663-0.459
		l-0.867-0.408l-0.817-0.229l-0.969-0.076l-0.995,0.357l-0.28,1.096l-0.638,0.791l-0.893,0.332l-0.868,0.127l-1.198-0.102
		l-1.122-0.076l-0.995,0.025l-0.894,0.204l0.052,0.562v0.535l-0.229,0.561l-0.204,0.459l-0.944,0.587h-0.892l-2.679-1.173
		l-2.526-0.816l-2.652-0.97l-2.525-0.714l-2.652-0.943l-2.576-1.046l-2.321-1.506l-2.118-1.709l-2.27,1.786l-2.066,0.025
		l-2.015-1.25l-2.016-1.861l-1.989-1.812l-2.04-0.97l-1.837,0.484l-1.684,2.883l-4.03-3.877l-0.204,1.199l0.254,1.301l0.562,1.301
		l0.562,1.352l0.254,1.174l-0.102,1.121l-0.739,0.868l-1.403,0.919l-0.688-0.663l-0.562-0.204l-0.765-0.076l-0.664,0.127h-0.739
		h-0.765l-0.817-0.103l-0.638,0.025l0.995,0.868l1.326,0.841l1.352,0.868l1.327,1.071l1.122,1.07l1.021,1.403l0.587,1.633
		l0.357,1.99l-0.664,0.688l2.832-0.816l2.346,0.588l1.633,1.301l1.48,1.606l1.326,1.302l1.556,0.637l2.091-0.586l2.704-2.245
		l2.296-0.052l0.485,1.685l-0.103,1.836l-0.511,1.633l-0.611,1.888l-0.765,1.684l-0.077,1.632l0.383,1.429l1.429,1.403l2.32-1.353
		l1.735-0.152l1.198,0.765l1.25,1.174l1.122,1.3l1.302,1.2l1.683,0.611l2.424-0.152l0.434,0.867l0.587,0.765l0.561,0.51l0.766,0.562
		l0.663,0.203l0.995,0.307l0.995-0.025l1.3,0.076l1.685,2.297l2.168,2.27l2.193,2.04l2.271,2.169l1.964,2.066l1.913,2.27l1.378,2.27
		l1.02,2.627l-1.377,1.659l-1.326,0.688l-1.327-0.332l-1.301-0.51l-1.352-0.638l-1.199-0.179l-0.995,0.435l-0.714,1.657l-1.76-5.025
		l-1.862,0.918l-1.53,0.154l-1.429-0.638l-1.326-0.843l-1.557-1.198l-1.453-0.739l-1.658-0.408l-1.837,0.356l-0.103,0.867
		l-0.433,0.689l-0.535,0.433l-0.536,0.664l-1.709-2.5l-1.658-1.506l-1.862-0.739l-1.861-0.05l-2.118,0.025l-2.219,0.024
		l-2.296-0.382l-2.296-0.842l-1.225,0.662l-0.407,0.894l-0.128,0.893l0.383,0.97l0.356,0.867l0.562,0.969l0.332,0.894l0.229,0.866
		l-0.815,0.358v-0.536l-0.153-0.97l-1.734-0.101l-1.888,0.05l-2.193-0.076l-1.989-0.076l-2.092-0.511l-1.658-0.739l-1.353-1.403
		l-0.791-1.862l-1.479,2.015l-1.861,1.354l-2.066,0.789l-2.168,0.715l-2.398,0.587l-2.193,0.892l-1.938,1.379l-1.658,2.219
		l-0.663-2.832l-1.709-2.627l-2.143-2.576l-1.99-2.296l-1.479-2.5l-0.254-2.296l1.606-2.346l4.005-2.041l-0.052-1.734v-1.761
		l-0.127-1.861l-0.179-1.659l-0.434-1.759l-0.689-1.378l-1.224-1.429l-1.479-0.97l-3.852-0.918l-2.729,0.816l-2.27,1.913
		l-1.914,2.449l-2.066,2.347l-2.168,2.016l-2.831,0.688l-3.521-0.688l-5.483,5.815l-1.658-0.638l-1.531,0.229l-1.657,0.791
		l-1.403,1.147l-1.531,0.893l-1.505,0.689l-1.657-0.205l-1.658-1.045l-1.837,1.658l-1.861,0.51l-2.118-0.306l-1.989-0.663
		l-2.065-0.715l-1.99,0.051l-1.837,1.021l-1.504,2.347l-0.996-0.791l-0.791-0.74l-0.892-0.867l-0.791-0.765l-0.994-0.739
		l-0.996-0.535l-1.224-0.409l-1.301,0.026l-0.153-1.2l-0.026-1.122l0.23-1.198l0.306-1.224l0.281-1.327l0.561-1.199l0.511-1.097
		l0.766-1.021l1.759,0.537l1.863,0.969l1.912,0.918l1.99,0.97l1.76,0.714l1.861,0.74l1.889,0.306l1.989,0.179l2.04-2.755
		l3.011-1.581l3.521-1.072l3.953-0.611l3.597-1.046l3.393-1.505l2.449-2.678l1.581-3.955l0.638-2.016l1.505-1.453l1.76-1.326
		l2.169-1.147l1.836-1.353l1.709-1.352l1.098-1.761l0.383-2.092l-0.663-1.862l-0.281-1.658l-0.229-1.631l-0.026-1.429l-0.024-1.53
		l-0.025-1.429l-0.026-1.53l0.076-1.531l-1.861-0.332l-1.633,0.484l-1.759,0.817l-1.761,1.122l-1.709,0.867l-1.735,0.816
		l-1.887,0.28l-1.862-0.433l-0.867,0.611l-0.867,0.51l-1.098,0.357l-1.097,0.256l-1.224-0.97l-0.791-0.97l-0.562-1.071l-0.356-1.021
		l-0.332-1.071l-0.229-1.122l-0.383-0.97l-0.332-0.765l-2.474,1.709l-2.525,1.913l-2.576,1.582l-2.652,1.479l-2.909,0.918
		l-2.883,0.357l-3.086-0.256l-2.933-0.918l-1.735,1.428l-1.887,1.582l-2.22,1.454l-2.22,1.581l-2.475,1.378l-2.295,1.454
		l-2.397,1.581l-2.041,1.684l-1.785-1.633l-0.868,0.688l-0.867,1.021l-1.071,1.096l-1.07,1.021l-1.327,0.663l-1.173,0.459
		l-1.429-0.102l-1.326-0.714l-1.454-0.97l-1.353-0.867l-1.429-0.918l-1.224-0.995l-1.34-1.198l-0.981-1.174l-0.943-1.301
		l-0.473-1.301l3.508-1.734l3.469-1.684l3.394-1.939l3.468-2.041l3.266-2.346l3.239-2.373l3.24-2.474l3.366-2.448l2.22,0.918
		l2.092,0.076l1.963-0.79l1.939-0.919l1.761-1.021l1.938-0.356l1.888,0.51l2.144,1.938l0.509-0.663l0.791-0.357l0.868-0.332
		l0.893-0.025l0.739-0.025l0.868,0.332l0.815,0.307l0.739,0.662l-1.657-3.928l3.035-1.479l3.368-1.275l3.596-1.173l3.954-1.174
		l3.826-1.148l3.902-1.147l3.725-1.174l3.826-1.173l1.353-1.786l1.555-1.785l1.251-1.989l1.326-1.99l0.918-2.219l0.74-2.117
		l0.407-1.965l0.18-1.887l-0.894,0.025l-0.842,0.127l-0.893,0.128l-0.842,0.128l-1.02-0.076l-0.766-0.357l-0.663-0.612l-0.485-0.97
		l-0.332-1.02l0.103-0.97l0.307-1.021l0.306-0.969l0.204-0.996l-0.102-0.994l-0.485-0.867l-1.097-0.739l-1.505,0.483l-1.326,0.996
		l-1.301,1.224l-1.302,1.225l-1.301,0.791l-1.326,0.562l-1.429-0.051l-1.352-1.098l-2.271,0.178l-2.22-0.433l-2.168-1.147
		l-2.142-1.072l-2.22-1.174l-2.193-0.51l-2.22,0.153l-2.168,1.353l-2.398,0.28l-2.168-0.307l-2.244-0.739l-1.862-0.638l-1.888-0.408
		l-1.505,0.383l-1.326,1.224l-0.791,2.756l-3.342-1.607l-0.638,0.587l-0.128,0.867l-0.102,0.892l0.256,0.868l-0.103,0.765
		l-0.076,0.894l-0.536,0.562l-0.867,0.561l-0.74-1.633l-0.688-1.633l-0.766-1.861l-0.688-1.53l-1.123-1.53l-1.225-1.072
		l-1.684-0.611l-1.938,0.127l-3.162,1.301l-2.092,2.194l-1.48,2.551l-1.02,2.882l-1.276,2.78l-1.505,2.552l-2.142,1.989
		l-2.832,1.274l-0.459,0.996l-0.307,1.326l-0.255,1.301l-0.229,1.428l-0.485,1.225l-0.675,1.021l-1.11,0.662l-1.402,0.357
		l-2.64,0.152l-2.182,1.047l-2.041,1.453l-1.95,1.785l-2.041,1.686l-1.951,1.683l-2.182,1.122l-2.397,0.715l-1.263-1.633
		l2.143-3.011l1.824-3.315l1.709-3.418l1.671-3.418l1.709-3.367l2.231-2.984l2.844-2.475l3.585-1.582l0.497-2.244l1.645-1.76
		l2.028-1.658l2.194-1.479l1.479-1.582l0.663-1.429l-1.02-1.53l-3.01-1.582l-0.307-1.098l0.076-0.765l0.332-0.663l0.612-0.331
		l0.663-0.459l0.663-0.46l0.536-0.561l0.638-0.664l3.622-0.713l3.163,0.484l2.652,1.147l2.703,1.505l2.398,1.148l2.807,0.713
		l2.933-0.459l3.571-1.938l0.867-1.429l0.511-1.582l0.102-1.632l0.103-1.531l-0.052-1.632l0.408-1.454l0.638-1.429l1.174-1.02
		l0.97-2.424l0.076-2.194l-0.689-2.092l-1.02-1.861l-1.046-1.913l-0.459-1.761l0.307-1.887l1.606-1.785l-0.663-1.965l0.051-1.429
		l0.51-1.225l0.994-0.892l0.97-0.894l1.225-0.894l0.842-1.121l0.612-1.199l-2.603-10.943l-1.606,0.229l-1.785,0.587l-1.761,0.587
		l-1.606,0.714l-1.76,0.127l-1.429-0.306l-1.25-1.198l-0.688-2.193l-0.153-8.215l-3.902,1.685l-0.791-1.071l-0.229-1.174
		l-0.077-1.453l0.153-1.2l-0.153-1.225l-0.356-0.867l-0.791-0.663l-1.301,0.153l-0.766,1.556l-0.714,1.658l-0.74,1.683l-0.638,1.633
		l-0.714,1.684l-0.663,1.633l-0.51,1.785l-0.281,1.965l-0.995-1.174l-1.02-1.199l-1.021-1.428l-0.919-1.275l-1.225-1.403
		l-1.122-1.199l-1.428-1.173l-1.34-0.867l0.166,3.061l-0.753,2.117l-1.568,1.454l-1.875,1.122l-2.206,0.919l-1.926,1.249
		l-1.402,1.557l-0.523,2.525l-1.441,0.255l-1.071,0.331l-1.187,0.051h-0.995l-0.981-0.306l-1.021-0.408l-0.994-0.663l-0.88-0.74
		l-0.663,0.535l-0.637,1.021l-0.639,0.994l-0.65,1.098l-0.854,0.918l-0.854,0.766l-1.109,0.561l-1.211,0.256l-1.123-3.061
		l-0.944-3.164l-0.599-3.393l-0.166-3.291l0.051-3.315l0.714-3.163l1.263-3.112l2.041-2.781l1.633-0.459l1.875-0.382l1.849-0.459
		l1.837-0.357l1.543-0.689l1.39-0.791l1.009-1.122l0.727-1.557l0.052-2.066l-0.332-1.224l-0.766-0.739l-0.994-0.23l-1.327-0.281
		l-1.326-0.178l-1.352-0.664l-0.982-1.071l2.831-7.627L490.269,474l-0.651-0.306l-0.688-0.561l-0.332-0.511l-0.447-0.663
		l-0.114-0.663l-0.026-0.765l0.191-0.766l-1.211-0.076l-1.072,0.026l-1.02-0.204l-0.881-0.204l-0.879-0.459l-0.639-0.664
		l-0.688-0.739l-0.356-0.868l-0.09-4.923l-1.76-0.077l-1.645,0.026l-1.659,0.026l-1.186,0.357l-1.211,0.433l-0.854,0.919
		l-0.638,1.326l-0.166,2.066l-0.765,0.689l-0.664,0.255l-0.548-0.255l-0.523-0.408l-0.689-0.638l-0.586-0.663l-0.663-0.434
		l-0.549-0.102l-1.403,12.219l-1.02-0.74l-0.88-0.102l-0.88,0.102l-0.752,0.612l-0.88,0.536l-0.74,0.689l-0.663,0.663l-0.522,0.766
		l-0.408,1.555l0.102,1.658l0.472,1.505l0.905,1.633l1.021,1.531l1.275,1.504l1.212,1.531l1.313,1.505l-0.74,0.791l-1.071,0.535
		l-1.211,0.383l-1.11,0.357l-0.957,0.358l-0.446,0.765l0.026,0.968l0.918,1.633l1.122,1.837l1.875,0.97l2.092,0.305l2.321-0.051
		l2.181-0.152l2.22,0.408l1.772,1.071l1.455,2.245l0.141,1.352l0.14,1.301l0.026,1.097v1.2l-0.217,1.121l-0.089,1.097l-0.293,1.098
		l-0.204,1.326l-2.283,0.024l1.684,1.633l1.237,2.067l0.586,2.168l0.358,2.32l0.05,2.296l-0.191,2.424l-0.307,2.296l-0.166,2.296
		l-0.765,0.79l-0.727,0.357l-0.791-0.102l-0.778-0.333l-0.854-0.637l-0.803-0.638l-0.88-0.638l-0.689-0.307l-0.459-1.556
		l-0.37-1.505l-0.243-1.53l-0.242-1.326l-0.472-1.429l-0.663-1.174l-1.02-1.098l-1.326-0.842l-0.982,0.459l-0.854,0.332
		l-0.995,0.129h-0.879l-0.893-0.307l-0.766-0.535l-0.765-0.766l-0.587-0.842l-0.242-1.862l0.076-1.785l0.063-1.965l0.076-1.964
		l-0.14-1.964L458,507.059l-0.804-1.632l-1.211-1.276l-2.309,0.051l-1.186,2.194l-0.382,2.449l-0.09,2.296l0.282,2.396l0.024,2.194
		l-0.306,2.092l-0.931,1.989l-1.735,1.685l-0.803-1.965l-0.254-2.219l-0.026-2.296l0.063-2.296l-0.357-2.296l-0.689-2.065
		l-1.607-1.837l-2.309-1.148l-0.497,2.603l-0.167,2.755l-0.166,2.652l0.052,2.755l0.025,2.5l0.256,2.551l0.268,2.296l0.587,2.398
		l-2.258,2.678l-1.441-0.639l-0.879-0.969l-0.715-1.301l-0.472-1.326l-0.663-1.402l-0.663-1.2l-1.122-0.867l-1.429-0.383
		l-1.161,2.397l-0.383,2.781l-0.191,2.627l0.268,2.857l0.052,2.729l0.166,2.959l-0.191,2.882l-0.498,2.959l-6.479-5.918l-0.51,1.428
		l-0.089,1.735l0.051,1.989l0.039,1.99l-0.204,1.836l-0.523,1.684l-0.931,1.226l-1.543,0.79l-1.02-1.402l-0.996-1.506l-1.16-1.658
		l-0.982-1.504l-1.352-1.301l-1.326-0.97l-1.429-0.511l-1.441,0.128l0.281,2.959l0.026,3.062l-0.612,2.881l-0.817,2.985
		l-1.377,2.653l-1.709,2.525l-2.041,2.27l-2.398,2.016l-2.092-0.867l-1.416-1.046l-0.931-1.53l-0.613-1.531l-0.433-1.965
		l-0.472-1.861l-0.472-1.861l-0.714-1.531l-0.714,1.327l-0.88,0.663l-1.109,0.051l-1.097-0.205l-1.097-0.509l-0.778-0.562
		l-0.537-0.51l0.421,1.504l-0.166,1.761l-0.739,1.633l-0.854,1.683l-0.97,1.684l-0.408,1.761l0.166,1.862l1.135,2.27l-2.066,0.587
		l-1.734,0.715l-1.772,0.765l-1.403,1.021l-1.518,0.892l-1.429,1.021l-1.518,0.893l-1.404,0.918l-1.3,0.256l-1.429-0.076
		l-1.658-0.307l-1.542-0.307l-1.685-0.178l-1.288,0.102l-1.211,0.816l-0.714,1.556l-1.25-0.433l-0.855,0.102l-0.765,0.484
		l-0.522,0.535l-0.663,0.459l-0.638,0.23l-0.79-0.077l-0.854-0.562l-1.327,2.246l-0.23,0.738l-0.051-1.3l-0.14-1.888l-0.128-1.633
		l-0.472-1.76l-0.688-1.403l-1.212-1.429l-1.466-0.969l-3.853-0.894l-2.729,0.817l-2.257,1.912l-1.965,2.449l-2.016,2.346
		l-2.168,1.991l-2.87,0.714l-3.494-0.714l-5.523,5.815l-1.646-0.639l-1.543,0.23l-1.631,0.816l-1.429,1.121l-1.493,0.92
		l-1.542,0.663l-1.646-0.179l-1.659-1.098l-1.824,1.709l-1.836,0.485l-2.092-0.307l-2.015-0.638l-2.092-0.739l-1.99,0.051
		l-1.85,1.021l-1.492,2.347l-1.008-0.765l-0.777-0.766l-0.906-0.867l-0.778-0.714l-0.994-0.791l-0.982-0.536l-1.237-0.408
		l-1.3,0.051l-0.141-1.225l-0.025-1.096l0.217-1.199l0.281-1.225l0.332-1.326l0.522-1.225l0.523-1.122l0.765-0.995l1.772,0.535
		l1.837,0.97l1.9,0.919l1.989,0.969l1.76,0.74l1.913,0.739l1.863,0.306l1.964,0.18l2.066-2.781l3.061-1.581l3.444-1.071l3.966-0.613
		l3.609-1.02l3.394-1.531l2.474-2.652l1.543-3.979l0.637-1.99l1.543-1.454l1.709-1.353l2.181-1.121l1.837-1.379l1.747-1.326
		l1.046-1.785l0.408-2.092l-0.689-1.836l-0.242-1.684l-0.23-1.607l-0.051-1.454l-0.026-1.53v-1.429l-0.063-1.53l0.114-1.529
		l-1.9-0.307l-1.632,0.459l-1.76,0.791l-1.709,1.148l-1.761,0.918l-1.709,0.791l-1.875,0.254l-1.9-0.434l-0.854,0.612l-0.854,0.535
		l-1.096,0.358l-1.11,0.229l-1.211-0.943l-0.765-0.994l-0.587-1.072l-0.357-0.995l-0.357-1.097l-0.217-1.098l-0.357-0.994
		l-0.332-0.738l-2.512,1.709l-2.474,1.887l-2.628,1.581l-2.589,1.479l-2.946,0.918l-2.895,0.357l-3.061-0.255l-2.972-0.918
		l-1.734,1.429l-1.824,1.581l-2.283,1.479l-2.181,1.582l-2.474,1.352l-2.321,1.453l-2.372,1.582l-2.028,1.684l-1.798-1.633
		l-0.88,0.689l-0.854,0.994l-1.072,1.123l-1.109,1.02l-1.288,0.689l-1.187,0.434l-1.441-0.076l-1.339-0.74l-1.416-0.943
		l-1.377-0.867l-1.403-0.97l-1.237-0.97l-1.351-1.198l-0.996-1.174l-0.906-1.301l-0.446-1.302l3.482-1.709l3.469-1.709l3.354-1.938
		l3.507-2.041l3.252-2.347l3.227-2.372l3.278-2.475l3.354-2.5l2.207,0.97l2.066,0.103l1.965-0.817l1.977-0.918l1.735-1.021
		l1.989-0.357l1.875,0.511l2.117,1.938l0.498-0.663l0.803-0.332l0.854-0.331l0.88-0.051h0.804l0.854,0.332l0.765,0.279l0.803,0.664
		l-1.709-3.929l3.022-1.479l3.393-1.275l3.583-1.148l3.966-1.174l3.801-1.147l3.954-1.173l3.711-1.174l3.801-1.174l1.416-1.785
		l1.48-1.76l1.3-2.015l1.288-1.989l0.943-2.193l0.715-2.118l0.421-1.989l0.191-1.863l-0.893,0.026l-0.88,0.103l-0.854,0.127
		l-0.88,0.127l-0.994-0.076l-0.766-0.331l-0.663-0.638l-0.446-0.969l-0.358-1.021l0.064-0.968l0.331-0.996l0.332-0.995l0.191-0.969
		l-0.115-1.021l-0.498-0.867l-1.096-0.74l-1.518,0.485l-1.301,0.996l-1.288,1.25l-1.327,1.224l-1.263,0.79l-1.327,0.587
		l-1.428-0.102l-1.326-1.071l-2.322,0.153l-2.194-0.409l-2.207-1.172l-2.129-1.046l-2.207-1.2l-2.207-0.509l-2.194,0.152
		l-2.155,1.353l-2.424,0.28l-2.207-0.28l-2.206-0.741l-1.875-0.637l-1.875-0.409l-1.543,0.358l-1.288,1.224l-0.829,2.781
		l-3.342-1.607l-0.625,0.561l-0.115,0.892l-0.076,0.868l0.217,0.893l-0.089,0.739l-0.077,0.894l-0.549,0.585l-0.879,0.562
		l-0.663-1.685l-0.715-1.632l-0.803-1.836l-0.664-1.506l-1.136-1.505l-1.199-1.096l-1.683-0.638l-1.965,0.153l-3.162,1.276
		l-2.067,2.192l-1.492,2.577l-1.046,2.857l-1.263,2.78l-1.518,2.551l-2.129,1.99l-2.832,1.275l-0.42,1.02l-0.332,1.326l-0.293,1.303
		l-0.166,1.428l-0.548,1.199l-0.637,1.02l-1.11,0.663l-1.428,0.383l-2.614,0.128l-2.156,1.02l-2.065,1.48l-1.951,1.785l-2.067,1.684
		l-1.963,1.684l-2.168,1.123l-2.373,0.713l-1.276-1.606l2.155-3.01l1.824-3.342l1.696-3.418l1.684-3.418l1.684-3.342l2.257-2.985
		l2.844-2.498l3.584-1.582l0.522-2.22l1.594-1.76l2.067-1.683l2.155-1.48l1.518-1.581l0.625-1.429l-1.021-1.531l-2.971-1.581
		l-0.332-1.071l0.051-0.766l0.331-0.689l0.664-0.331l0.663-0.46l0.637-0.459l0.523-0.535l0.65-0.689l3.622-0.714l3.189,0.484
		l2.653,1.174l2.666,1.505l2.423,1.173l2.768,0.715l2.972-0.51l3.583-1.939l0.854-1.428l0.523-1.555l0.076-1.633l0.089-1.556
		l-0.026-1.633l0.409-1.429l0.637-1.453l1.212-1.021l0.905-2.423l0.089-2.194l-0.689-2.066l-1.02-1.862l-1.046-1.939l-0.472-1.734
		l0.293-1.888l1.632-1.786l-0.688-1.989l0.076-1.429l0.536-1.174l0.957-0.918l0.969-0.918l1.212-0.867l0.854-1.148l0.663-1.198
		l-2.653-10.944l-1.62,0.256l-1.761,0.561l-1.709,0.612l-1.633,0.689l-1.759,0.128l-1.441-0.332l-1.263-1.173l-0.689-2.194
		l-0.115-8.214l-3.94,1.735l-0.817-1.098l-0.203-1.198l-0.026-1.428l0.089-1.225l-0.141-1.199l-0.357-0.892l-0.778-0.639
		l-1.288,0.128l-0.752,1.582l-0.739,1.632l-0.741,1.684l-0.637,1.658l-0.714,1.658l-0.639,1.633l-0.522,1.785l-0.332,1.99
		l-0.994-1.174l-1.021-1.224l-0.981-1.429l-0.919-1.275l-1.211-1.428l-1.122-1.174l-1.467-1.174l-1.327-0.867l0.166,3.087
		l-0.739,2.092l-1.62,1.454l-1.849,1.122l-2.181,0.918l-1.926,1.25l-1.403,1.557l-0.523,2.55l-1.441,0.255l-1.071,0.332
		l-1.186,0.026h-1.02l-0.996-0.281l-0.982-0.434l-0.994-0.663l-0.918-0.714l-0.625,0.535l-0.663,0.995l-0.637,1.021l-0.625,1.071
		l-0.868,0.918l-0.841,0.766l-1.135,0.561l-1.186,0.255l-1.135-3.062l-0.932-3.162l-0.637-3.367l-0.128-3.291l0.051-3.317
		l0.714-3.188l1.237-3.111l2.067-2.755l1.632-0.46l1.849-0.383l1.862-0.485l1.849-0.357l1.543-0.663l1.376-0.816l0.996-1.122
		l0.714-1.53l0.09-2.092l-0.358-1.224l-0.752-0.741l-0.994-0.178l-1.314-0.331l-1.326-0.179l-1.351-0.664l-0.996-1.071l2.844-7.601
		l-1.02-0.46l-0.663-0.305l-0.664-0.537l-0.332-0.535l-0.433-0.663l-0.141-0.638v-0.765l0.191-0.791l-1.211-0.052h-1.072
		l-1.02-0.203l-0.88-0.204l-0.892-0.434l-0.651-0.638l-0.663-0.765l-0.357-0.893l-0.089-4.923l-1.76-0.05h-1.658l-1.646,0.024
		l-1.186,0.383l-1.211,0.434l-0.88,0.892l-0.639,1.328l-0.14,2.091l-0.778,0.664l-0.689,0.254l-0.509-0.254l-0.561-0.409
		l-0.664-0.637l-0.574-0.639l-0.663-0.433l-0.549-0.128l-1.428,12.219l-1.02-0.739l-0.854-0.078l-0.88,0.103l-0.778,0.586
		l-0.854,0.561l-0.765,0.664l-0.638,0.663l-0.522,0.765l-0.421,1.582l0.115,1.632l0.472,1.531l0.905,1.632l1.021,1.531l1.262,1.505
		l1.187,1.506l1.352,1.529l-0.74,0.765l-1.084,0.562l-1.198,0.356l-1.11,0.357l-0.97,0.357l-0.433,0.765l0.026,0.97l0.905,1.658
		l1.135,1.812l1.875,0.968l2.092,0.306l2.283-0.05l2.206-0.154l2.207,0.409l1.798,1.071l1.454,2.27l0.141,1.301l0.14,1.326v1.124
		l0.026,1.198l-0.217,1.096l-0.089,1.124l-0.307,1.096l-0.191,1.301l-2.283,0.025l1.659,1.659l1.263,2.04l0.574,2.194l0.356,2.296
		l0.063,2.321l-0.23,2.398l-0.268,2.321l-0.166,2.296l-0.778,0.791l-0.713,0.331l-0.791-0.076l-0.778-0.331l-0.88-0.639
		l-0.803-0.637l-0.854-0.663l-0.689-0.307l-0.472-1.53l-0.356-1.531l-0.243-1.531l-0.255-1.326l-0.459-1.428l-0.663-1.173
		l-1.02-1.072l-1.327-0.867l-0.995,0.459l-0.854,0.357l-0.982,0.102l-0.918,0.026l-0.854-0.307l-0.766-0.535l-0.804-0.765
		l-0.548-0.868l-0.28-1.837l0.089-1.785l0.077-1.964l0.089-1.989l-0.14-1.965l-0.357-1.76l-0.804-1.632l-1.237-1.301l-2.322,0.05
		l-1.148,2.194l-0.381,2.449l-0.09,2.296l0.282,2.398l0.024,2.219l-0.306,2.066l-0.968,2.016l-1.697,1.683l-0.803-1.964l-0.254-2.22
		l-0.052-2.295l0.089-2.321l-0.37-2.271l-0.714-2.066l-1.569-1.862l-2.322-1.148l-0.509,2.627l-0.141,2.73l-0.229,2.653l0.089,2.755
		l0.051,2.499l0.256,2.552l0.268,2.296l0.587,2.397l-2.258,2.704l-1.441-0.663l-0.879-0.97l-0.715-1.3l-0.472-1.302l-0.663-1.428
		l-0.663-1.173l-1.148-0.868l-1.416-0.408l-1.174,2.424l-0.37,2.755l-0.191,2.627l0.28,2.857l0.052,2.754l0.166,2.959l-0.191,2.857
		l-0.498,2.959l-6.479-5.918l-0.522,1.429l-0.076,1.761l0.05,1.989l0.026,1.964l-0.191,1.887l-0.523,1.633l-0.969,1.224
		l-1.505,0.817l-1.02-1.428l-0.996-1.505l-1.16-1.633l-0.995-1.556l-1.377-1.276l-1.289-0.944l-1.466-0.535l-1.428,0.153
		l0.305,2.959l0.026,3.061l-0.613,2.857l-0.829,3.01l-1.377,2.653l-1.709,2.525l-2.067,2.27l-2.397,1.99l-2.067-0.868l-1.429-1.045
		l-0.905-1.531l-0.613-1.53L152.082,479l-0.472-1.837l-0.472-1.862l-0.714-1.556l-0.714,1.352l-0.88,0.689h-1.109l-1.097-0.204
		l-1.109-0.511l-0.765-0.561L144.2,474l-0.039-0.127l0.472,1.658l-0.191,1.76l-0.713,1.632l-0.855,1.659l-0.969,1.683L141.496,484
		l0.14,1.887l1.148,2.296l-2.092,0.612l-1.733,0.663l-1.735,0.791l-1.429,0.995l-1.518,0.918l-1.416,1.02l-1.506,0.894l-1.403,0.918
		l-1.3,0.254l-1.429-0.101l-1.658-0.281l-1.568-0.331l-1.658-0.179l-1.288,0.128l-1.224,0.79l-0.715,1.556l-1.237-0.434l-0.88,0.128
		l-0.74,0.459l-0.522,0.561l-0.702,0.435l-0.625,0.254l-0.778-0.102l-0.88-0.561l-1.288,2.245l-0.714,2.321l-0.498,2.296
		l-0.166,2.652l-0.421,2.424l-0.293,2.652l-0.51,2.653l-0.715,2.755l1.441-0.152l0.982,0.51l0.446,0.893l0.357,1.198l-0.077,1.327
		l0.026,1.428l0.026,1.199l0.242,1.199l1.441,2.168l1.785,1.071l1.876-0.153l2.065-0.561l1.964-1.021l2.067-1.045l1.836-0.688
		l1.875-0.025l0.854-1.888l0.969-1.786l0.714-1.862l1.072-1.658l1.083-1.555l1.403-1.225l1.875-0.919l2.398-0.28l0.79,1.326
		l0.995,0.51h0.994l1.187-0.356l1.211-0.663l1.302-0.562l1.313-0.483l1.518,0.077l5.51,0.994l5.74,0.791l5.815,0.561l5.842,0.663
		l5.484,0.791l5.535,1.429l5.103,2.016l4.872,2.959l4.488,5.866l5.689,4.285l6.083,3.062l6.312,2.755l5.766,2.856l5.229,3.673
		l3.801,4.975l2.346,7.219l-2.283,2.347l-1.582-1.965l-1.543-1.402l-1.67-1.071l-1.543-0.612l-1.875-0.51l-1.876-0.102l-2.091-0.053
		l-2.181,0.358l-0.089,0.867v0.995l-0.077,0.765l-0.115,0.894l-0.433,0.662l-0.421,0.766l-0.663,0.562l-0.74,0.587l-2.347-0.842
		l-2.092-0.97l-2.092-1.173l-2.092-1.072l-2.231-1.173l-2.105-0.943l-2.193-0.843l-2.232-0.407l-0.191,0.663l-0.42,0.663
		l-0.663,0.587l-0.332,0.79l-1.875-1.53l-1.786-1.607l-2.015-1.836l-2.015-1.506l-2.194-1.377l-2.207-0.867l-2.461-0.152l-2.5,0.918
		l-0.74,0.893l-0.867,0.562l-0.65,0.024l-0.522,0.103l-0.561,0.025l-0.574,0.128l-0.88-1.225l-0.804-1.174l-0.994-1.199
		l-0.906-1.096l-1.096-1.046l-1.25-0.663l-1.429-0.307l-1.402,0.255l-0.115,0.536v0.561l0.115,0.562l0.14,0.612l-0.089,0.893
		l-0.548,0.791l-1.76,0.051l0.167,1.428l-0.23,1.072l-0.663,0.816l-0.842,0.408l-1.187,0.356l-1.135,0.485l-0.943,0.562
		l-0.625,0.892l-1.021-0.969l-0.905-0.867l-0.995-1.097l-0.803-0.944l-0.995-0.994l-0.981-0.639l-1.135-0.408l-1.187,0.103
		l-1.594,2.679l-8.188-6.76l-0.026,1.734l-0.331,1.888l-0.83,1.659l-0.969,1.759l-1.377,1.353l-1.505,1.25l-1.658,0.791
		l-1.658,0.586l-2.946-1.734l-2.807-0.715l-2.844-0.051l-2.615,0.357l-2.755,0.408l-2.755,0.484l-2.729,0.127l-2.729-0.152
		l-0.995,1.326l-1.161,1.021l-1.313,0.791l-1.084,0.892l-0.994,0.664l-0.51,1.123l0.153,1.301l1.109,1.861l1.135,1.53l1.428,1.071
		l1.569,0.715l1.657,0.408l1.646,0.102l1.849,0.076l1.76,0.078l1.875,0.178l1.441-0.025l2.092-0.255l2.181-0.46l2.5-0.152
		l2.207,0.051l1.9,0.766l1.326,1.479l0.714,2.653l1.76,0.715l2.181,0.407l2.309,0.179l2.321,0.179l2.232,0.203l2.065,0.512
		l1.684,0.841l1.428,1.606v-0.968l3.533,1.224l3.52,1.174l3.533,0.714l3.609,0.255l3.533-0.408l3.494-1.046l3.584-1.683l3.584-2.373
		l1.045,2.705l1.9,1.733l2.322,1.173l2.551,0.918l2.104,0.844l1.759,1.504l0.83,2.297l-0.281,3.545l0.255,2.066l0.689,1.428
		l0.905,0.74l1.327,0.535l1.403-0.025l1.645-0.127l1.659-0.281l1.735-0.254l0.637-2.194l1.072-1.123l1.402-0.586l1.772,0.203
		l1.646,0.204l1.798,0.511l1.518,0.204l1.428-0.025l2.653,1.147l2.526,1.606l2.487,1.379l2.423,1.504l2.449,1.072l2.654,0.714
		l2.831,0.152l3.303-0.356l0.446,1.479l0.358,1.657l0.063,1.761l-0.23,1.76l-0.638,1.556l-0.816,1.455l-1.301,1.096l-1.62,0.918
		l-2.983,0.715l-2.398-0.204l-2.232-0.815l-1.76-1.404l-1.683-1.811l-1.352-1.888l-1.455-1.913l-1.25-1.734l-0.191,0.893
		l-0.433,0.867l-0.778,0.766l-0.854,0.663l-1.098,0.356l-0.994,0.026l-0.957-0.306l-0.918-0.536l-2.641-1.173l-2.422-0.715
		l-2.539-0.715l-2.422-0.509l-2.653-0.511l-2.424-0.484l-2.538-0.74l-2.449-0.715l-0.306,0.868l-0.052,1.199l-0.216,1.097
		l-0.23,1.225l-0.625,0.893l-0.752,0.663l-1.072,0.128l-1.569-0.281l-5.573-3.086l-5.586-1.455l-5.931-0.433l-5.957,0.204h-5.917
		l-5.816-0.23l-5.51-1.224l-5.242-2.679l-2.232,2.372l-2.666-0.076l-2.321-0.255l-2.284-0.663l-2.321-0.484l-2.309-0.639
		l-2.283-0.179l-2.461,0.154l-2.283,0.842l-0.166,1.734l0.446,1.76l0.689,1.633l0.79,1.657l0.473,1.479l0.242,1.557l-0.714,1.326
		l-1.518,1.453l-2.971,0.052l-2.755,0.051l-2.845-0.051l-2.64-0.076l-2.755-0.383l-2.653-0.612l-2.524-0.97l-2.424-1.25l0.88,1.709
		l0.574,1.889l0.242,1.835l0.256,1.889l0.268,1.76l0.587,1.734l1.122,1.633l1.875,1.607l4.719-0.867l4.822-0.307l4.629,0.152
		l4.72,0.461l4.54,0.586l4.604,0.918l4.514,0.893l4.629,0.919l1.518-1.25l1.875-0.894l1.849-0.79l1.952-0.382l1.964-0.256
		l2.092,0.076l1.977,0.18l1.991,0.611l0.803,1.225l0.88,0.841l1.02,0.664l0.982,0.407l0.994,0.205l0.995,0.332l1.097,0.305
		l1.225,0.613l2.499,0.076l2.653-0.281l2.526-0.561l2.627-0.715l2.283-1.146l2.373-1.25l2.066-1.455l2.041-1.352l1.428,5.663
		l2.539-1.224l2.588-0.282l2.539,0.18l2.563,0.509l2.398,0.409l2.666,0.152l2.601-0.255l2.972-0.815l0.88,0.739l0.472,0.994
		l-0.217,0.867l-0.42,0.996l-0.969,0.994l-0.741,1.021l-0.548,0.203l-0.446,0.229l-0.625,0.026l-0.586-0.103l-0.663-0.663
		l-0.625,1.02l-0.587,1.122l-0.714,1.098l-0.663,1.097l-0.854,0.918l-0.854,0.893l-0.957,0.562l-0.893,0.688l-0.981-0.434
		l-0.665-0.434l-0.777-0.535l-0.689-0.434l-0.88-0.408l-0.765-0.204l-0.97-0.103l-0.994,0.357l-0.332,1.098l-0.599,0.789
		l-0.88,0.332l-0.88,0.129l-1.224-0.078l-1.098-0.127l-0.994,0.051l-0.854,0.205v0.561v0.561l-0.191,0.537l-0.217,0.433
		l-0.995,0.587h-0.88l-2.653-1.148l-2.526-0.841l-2.679-0.944l-2.538-0.715l-2.64-0.943l-2.538-1.045l-2.347-1.506l-2.118-1.709
		l-2.257,1.785l-2.092,0.026l-1.99-1.276l-2.015-1.811l-2.04-1.861l-1.978-0.944l-1.849,0.459l-1.709,2.907l-4.018-3.877
		l-0.191,1.225l0.242,1.275l0.574,1.327l0.587,1.3l0.217,1.2l-0.089,1.097l-0.765,0.893l-1.403,0.918l-0.689-0.663l-0.523-0.204
		l-0.777-0.102l-0.663,0.152h-0.765h-0.778l-0.739-0.102l-0.689,0.025l1.02,0.842l1.326,0.867l1.352,0.867l1.313,1.045l1.135,1.098
		l1.02,1.402l0.574,1.633l0.358,1.965l-0.625,0.688l2.807-0.815l2.309,0.637l1.683,1.275l1.466,1.582l1.314,1.326l1.555,0.637
		l2.092-0.586l2.704-2.271l2.309-0.024l0.472,1.631l-0.089,1.889l-0.549,1.632l-0.574,1.889l-0.777,1.683l-0.077,1.607l0.358,1.454
		l1.453,1.377l2.296-1.351l1.761-0.129l1.186,0.74l1.237,1.198l1.135,1.276l1.339,1.199l1.632,0.637l2.424-0.153l0.472,0.868
		l0.574,0.765l0.522,0.511l0.804,0.561l0.664,0.205l0.994,0.306h0.957l1.352,0.051l1.683,2.296l2.118,2.27l2.232,2.041l2.231,2.168
		l2.015,2.041l1.9,2.295l1.352,2.271l1.046,2.627l-1.403,1.657l-1.301,0.688l-1.313-0.306l-1.353-0.51l-1.3-0.663l-1.237-0.204
		l-0.969,0.459l-0.74,1.659l-1.709-5.026l-1.875,0.919l-1.543,0.152l-1.428-0.663l-1.353-0.842l-1.543-1.173l-1.428-0.74
		l-1.657-0.408l-1.85,0.357l-0.14,0.867l-0.383,0.664l-0.574,0.459l-0.498,0.688l-1.709-2.526l-1.684-1.504l-1.875-0.74
		l-1.875-0.051h-2.091l-2.181,0.051l-2.309-0.383l-2.347-0.841l-1.161,0.688l-0.434,0.867l-0.114,0.893l0.331,0.994l0.357,0.842
		l0.587,0.97l0.358,0.867l0.216,0.919l-1.658,0.688l-1.506,0.23l-1.657-0.076l-1.543-0.076l-1.518-0.078l-1.187,0.435l-1.097,0.815
		l-0.637,1.531v1.071l0.472,1.225l0.459,1.071l0.803,1.225l0.638,0.969l1.02,0.969l1.02,0.97l0.982,0.97l2.985-0.051l3.086,0.255
		l2.857,0.511l2.87,0.713l2.653,0.613l2.755,0.713l2.641,0.512l2.755,0.611l-0.243-0.664v-0.535l-0.026-0.535l0.358-0.357
		l0.522-0.766l0.663-0.459l1.837,0.613l1.581,0.969l1.212,0.969l1.262,1.199l0.996,0.97l1.211,1.071l1.455,0.943l1.875,1.071
		l7.219-1.224l-1.148,3.213l0.382,2.424l1.327,1.402l2.117,1.046l2.424,0.435l2.87,0.459l2.538,0.407l2.309,0.715l1.301-0.995
		l1.428,0.103l1.211,0.612l1.25,0.842l1.198,0.663l1.226,0.434l1.313-0.484l1.377-1.352l17.805,19.258l-1.543,0.459l-1.071-0.203
		l-1.021-0.766l-0.663-1.072l-0.905-1.3l-1.02-1.098l-1.071-0.714l-1.378-0.128l-1.747-0.076l-1.76-0.612l-1.683-0.918l-1.646-1.02
		l-1.772-1.021l-1.671-0.51h-1.747l-1.646,1.02l-0.14,1.301l-0.358,0.996l-0.739,0.561l-0.752,0.459l-0.982,0.256l-0.994,0.357
		l-0.97,0.433l-0.548,0.791l-2.78-1.938l-2.181,0.051l-1.964,1.225l-1.62,1.887l-1.594,1.582l-1.543,0.688l-1.772-0.841
		l-1.811-3.062l0.191-0.995l0.333-0.893l0.305-0.97l0.434-0.79l0.089-0.995l0.191-0.867l-0.026-1.097v-1.098l-1.211-0.535
		l-0.804-0.739l-0.663-0.995l-0.689-0.943l-0.777-0.996l-0.906-0.535l-1.288-0.204l-1.659,0.459l-0.446,0.562l-0.191,0.766
		l-0.306,0.688l-0.217,0.894l-0.293,0.765l-0.331,0.765l-0.535,0.562l-0.549,0.663l-2.002-1.938l-1.913-2.065l-2.117-2.271
		l-2.015-2.245L158,706.635l-2.309-2.271l-2.563-2.115l-2.704-1.838l-1.492,1.99l-1.709,1.225l-2.194,0.611l-2.181,0.256
		l-2.461-0.205l-2.424-0.152l-2.283-0.307l-2.092,0.153l-8.047-8.52l-1.85,1.122l-2.066,0.816l-2.309,0.484l-2.181,0.383
		l-2.424,0.229l-2.181,0.485l-1.964,0.815l-1.531,1.326l-9.731-4.871v0.638l0.026,0.893l-0.115,0.766l-0.076,0.893l-0.446,0.663
		l-0.293,0.663l-0.664,0.332l-0.663,0.229l-1.824,0.052l-1.569-0.663l-1.453-1.071l-1.327-1.174l-1.352-1.403l-1.352-1.045
		l-1.454-0.97l-1.633-0.204l2.781,2.807l2.487,3.468l2.066,3.802l2.041,3.903l2.028,3.52l2.486,2.984l3.087,2.168l3.966,1.123
		l2.067-1.326l2.295-1.021l2.283-0.97l2.397-0.433l2.424-0.485l2.512-0.28l2.5-0.281l2.653-0.152l-0.166,1.785l0.548,1.735
		l0.932,1.733l1.211,1.837l1.25,1.633l1.237,1.76l0.931,1.608l0.561,1.733l1.543,0.229l1.645-0.127l1.773-0.256l1.837-0.28
		l1.658-0.229l1.658,0.51l1.568,1.072l1.352,2.168l-0.689,0.331l-0.204,0.357l-0.216,0.407l0.025,0.461v0.765v0.663l3.482,1.581
		l-0.995,1.225l-0.408,1.225l-0.089,1.122l0.242,1.071l0.446,0.867l0.906,0.97l0.994,0.561l1.327,0.613l1.875-0.715l1.811-0.663
		l1.772-0.663l1.761-0.357l1.62-0.306l1.772,0.204l1.735,0.765l1.811,1.479l2.014,2.602l2.041,2.934l2.232,2.831l2.486,2.781
		l2.526,2.168l3.112,1.582l3.418,0.587l4.056-0.383l1.466,2.193l1.454,1.836l1.467,1.505l1.645,1.275l1.684,0.842l1.76,0.97
		l2.015,0.752l2.207,0.715v0.867l-0.191,0.664l-0.548,0.356l-0.562,0.307l-0.879,0.152l-0.663,0.103l-0.741,0.356l-0.331,0.562
		l-0.995-0.307l-0.766-0.562l-0.777-0.663l-0.689-0.51l-0.74-0.663l-0.689-0.51l-0.804-0.357l-0.879,0.051l-2.589,1.989
		l-0.854-0.918l-0.931-0.765l-0.996-0.766l-0.88-0.65l-1.109-0.612l-0.982-0.407l-1.224-0.435l-1.097-0.204l0.548,1.505l0.612,1.519
		l0.358,1.326l0.216,1.429l0.026,1.173l0.026,1.326l-0.293,1.326l-0.306,1.53l-0.88,0.613l-0.752,0.663l-0.766,0.459l-0.752,0.459
		h-0.88l-0.766-0.103l-0.803-0.305l-0.663-0.664l0.331-1.632l0.064-1.429l-0.115-1.326l-0.254-0.97l-0.651-1.021l-0.918-0.612
		l-1.211-0.612l-1.313-0.255l-1.441,1.02l-1.072,0.154l-1.02-0.562l-0.88-0.816l-0.996-0.918l-0.879-0.408l-0.88,0.254l-0.854,1.48
		l-1.352-1.888l-1.211-0.511h-1.211l-1.11,0.715l-1.186,0.663l-1.174,0.562l-1.224,0.051l-1.122-0.766l-1.518,0.052l-1.326,0.204
		l-1.289,0.356l-1.211,0.562l-1.301,0.561l-1.212,0.664l-1.186,0.715l-1.212,0.663l0.256,0.561l0.331,0.663l0.217,0.611l0.357,0.664
		l0.141,0.663l0.216,0.663l-0.114,0.765l0.025,1.021l-0.548,0.611l-0.739,0.052l-2.679-1.938l-1.288,1.326l-1.467-0.511
		l-0.765-0.766l-0.446-1.07l-0.28-1.122l-0.319-1.174l-0.472-0.867l-0.778-0.612h-1.211l-0.625,0.765l-0.42,1.021l-0.434,1.07
		l-0.305,1.123l-0.639,1.021l-0.522,0.969l-0.88,0.969l-0.97,1.021l-2.423-1.276l-2.449-1.02l-2.321-1.429l-2.232-1.275
		l-2.002-1.581l-1.657-1.939l-1.378-2.448l-0.688-2.59l-1.212,0.256l-0.969,0.434l-0.879,0.574l-0.854,0.663l-0.88,0.561
		l-0.778,0.663l-0.88,0.562l-0.739,0.715l1.62,4.132l2.041,3.979l2.588,3.725l3.15,3.367l3.354,2.807l3.864,2.347l4.298,1.683
		l4.961,0.97l0.663-0.459l0.88-0.204h0.765l0.994,0.102l0.996-0.051l0.969,0.102h0.982l0.994,0.052l0.689,0.663l0.548,0.766
		l0.255,0.765l0.217,0.868l-0.115,0.765l-0.191,0.969l-0.318,0.919l-0.306,1.225l-1.824,1.326l-2.092,0.356l-2.423-0.255
		l-2.207-0.408l-2.207-0.307l-1.518,0.46l-1.072,1.479l-0.089,2.959l1.607,2.296l1.875,1.479l2.002,0.816l2.322,0.407l2.283-0.051
		l2.424-0.102l2.538-0.255h2.538l-0.255-0.715v-0.766l0.089-0.663l0.331-0.459l0.332-0.561l0.523-0.204l0.548-0.255h0.664
		l2.207,0.407l1.875-0.255l1.518-0.815l1.505-0.867l1.326-1.072l1.518-0.511l1.62-0.255l1.989,0.715l1.429-0.663l1.735-0.51
		l1.989-0.562l1.965-0.562l1.734-0.919l1.62-1.122l1.187-1.581l0.829-1.887l1.211-0.562l1.212-0.562l1.16-0.766l1.327-0.611
		l1.173-0.562l1.25-0.153l1.071,0.204l1.123,0.867l1.224,0.408l1.543,0.307l1.543-0.153l1.62-0.205l1.518-0.459l1.658-0.611
		l1.428-0.561l1.378-0.562l-0.612,0.97l0.039,1.122l0.217,0.97l0.688,1.071l0.766,0.766l1.225,0.663l1.198,0.408l1.557,0.204
		l1.096-1.021l1.403-0.561l1.518-0.255l1.659-0.052h1.646l1.772,0.154l1.76-0.103l1.734-0.052l-0.472-1.529l-0.242-1.429
		l-0.115-1.429l0.089-1.275v-1.48l0.268-1.326l0.306-1.173l0.637-1.224l2.309,0.51l1.9,1.378l1.467,1.835l1.352,2.092l1.352,1.837
		l1.671,1.378l1.989,0.663l2.755-0.408l0.548,6.581l0.332,7.143v7.347l-0.078,7.703l-0.305,7.448l-0.306,7.602l-0.191,7.346
		l-0.076,7.143l-5.127,160.446l-2.73,13.264l27.753-0.459l-2.754-234.828l-0.281-2.959l0.829-2.55l1.518-2.347l2.168-1.888
		l2.232-1.888l2.512-1.684l2.258-1.836l2.065-1.633l1.237,2.806l2.04,1.837l2.424,1.275l2.87,1.173l2.564,0.97l2.346,1.428
		l1.684,2.194l1.046,3.266l2.946-0.154l3.086,0.408l2.844,0.511l2.883,0.816l2.755,0.459l2.844,0.51l2.896,0.051l2.946-0.356
		l1.568,2.397l2.13,1.479l2.309,0.51l2.653,0.051l2.5-0.356l2.627-0.307l2.309-0.102l2.207,0.612l0.407-1.225l0.663-0.561
		l0.663-0.103l0.766,0.307l0.663,0.407l0.893,0.46l0.689,0.407l0.879,0.204l-0.612-2.04l0.089-2.092l0.383-2.245l0.408-1.989
		l-0.167-1.939l-0.663-1.53l-1.67-1.326l-2.985-0.562l-0.574-1.53l-0.778-0.561l-1.096-0.204l-1.211,0.255l-1.441,0.051
		l-1.174-0.102l-0.994-0.766l-0.715-1.429l-2.398,0.459l-2.066-0.152l-2.13-0.714l-1.9-0.97l-1.951-1.275l-1.798-1.275l-1.875-1.173
		l-1.9-0.868l0.639-1.633l1.045-1.122l1.211-0.918l1.543-0.357l1.429-0.103l1.518,0.409l1.568,0.612l1.556,1.274l0.689-0.102h0.625
		l0.548-0.357l0.536-0.204l0.88-0.918l0.74-1.122l4.375,0.255l4.527,1.021l4.541,1.123l4.501,1.122l4.439,0.51l4.464-0.408
		l0.115-0.051l2.64,2.652l2.448,3.47l2.066,3.774l2.041,3.929l2.04,3.521l2.475,3.009l3.113,2.144l3.94,1.122l2.067-1.326
		l2.295-1.021l2.283-0.919l2.397-0.509l2.424-0.459l2.538-0.307l2.513-0.256l2.614-0.101l-0.166,1.733l0.574,1.734l0.917,1.735
		l1.237,1.837l1.237,1.632l1.212,1.734l0.943,1.633l0.574,1.734l1.518,0.204l1.658-0.102l1.76-0.256l1.837-0.306l1.658-0.204
		l1.658,0.51l1.568,1.071l1.352,2.194l-0.663,0.306l-0.217,0.357l-0.229,0.408l0.038,0.459v0.766l0.026,0.663l3.444,1.581
		l-0.995,1.225l-0.408,1.225l-0.089,1.122l0.254,1.071l0.433,0.867l0.919,0.969l0.981,0.562l1.327,0.612l1.875-0.715l1.811-0.663
		l1.772-0.714l1.76-0.356l1.632-0.204l1.761,0.152l1.759,0.766l1.799,1.479l2.002,2.602l2.04,2.908l2.232,2.857l2.486,2.755
		l2.539,2.193l3.112,1.581l3.444,0.613l4.018-0.409l1.466,2.194l1.48,1.837l1.466,1.479l1.659,1.276l1.646,0.867l1.798,0.969
		l1.951,0.714l2.232,0.766v0.867l-0.191,0.663l-0.523,0.307l-0.574,0.356l-0.892,0.153l-0.625,0.102l-0.778,0.307l-0.305,0.612
		l-1.021-0.306l-0.766-0.562l-0.764-0.663l-0.689-0.511l-0.752-0.663l-0.689-0.511l-0.804-0.306h-0.842l-2.601,1.99l-0.88-0.97
		l-0.931-0.715l-0.995-0.765l-0.88-0.663l-1.109-0.612l-0.982-0.408l-1.211-0.459l-1.109-0.204l0.574,1.53l0.586,1.531l0.358,1.274
		l0.254,1.48v1.224l0.026,1.326l-0.306,1.276l-0.307,1.53l-0.88,0.562l-0.74,0.663l-0.778,0.51l-0.739,0.408l-0.88,0.051
		l-0.777-0.102l-0.765-0.357l-0.689-0.612l0.331-1.633l0.078-1.428l-0.141-1.327l-0.242-1.02l-0.664-0.97l-0.905-0.612l-1.211-0.663
		l-1.301-0.204l-1.466,1.021l-1.046,0.152l-1.02-0.51l-0.906-0.918l-0.996-0.868l-0.879-0.408l-0.88,0.256l-0.854,1.429
		l-1.327-1.837l-1.237-0.562l-1.211,0.051l-1.072,0.663l-1.187,0.715l-1.186,0.562h-1.237l-1.135-0.714h-1.518l-1.326,0.255
		l-1.289,0.356l-1.211,0.562l-1.301,0.561l-1.212,0.663l-1.186,0.663l-1.212,0.715l0.256,0.562l0.357,0.612l0.191,0.663l0.357,0.663
		l0.141,0.663l0.217,0.664l-0.102,0.765l0.024,0.969l-0.561,0.715h-0.739l-2.679-1.939l-1.288,1.327l-1.429-0.51l-0.778-0.766
		l-0.472-1.071l-0.243-1.122l-0.357-1.174l-0.446-0.867l-0.804-0.664h-1.198l-0.638,0.817l-0.421,1.021l-0.408,1.071l-0.331,1.122
		l-0.639,0.97l-0.522,1.02l-0.88,0.97l-0.931,1.02l-2.461-1.275l-2.423-1.07l-2.333-1.378l-2.246-1.275l-1.977-1.632l-1.683-1.939
		l-1.352-2.347l-0.714-2.652l-1.212,0.255l-0.97,0.408l-0.854,0.611l-0.879,0.663l-0.88,0.562l-0.765,0.663l-0.854,0.562
		l-0.778,0.713l1.633,4.133l2.028,3.979l2.601,3.725l3.164,3.315l3.342,2.806l3.852,2.348l4.323,1.733l4.961,0.97l0.663-0.459
		l0.854-0.204l0.778-0.051l0.982,0.152l0.995-0.051l0.995,0.103h0.968l0.982,0.051l0.689,0.663l0.561,0.765l0.242,0.766l0.243,0.867
		l-0.128,0.766l-0.166,0.97l-0.357,0.918l-0.28,1.224l-1.85,1.326l-2.091,0.358l-2.398-0.307l-2.231-0.408l-2.181-0.255
		l-1.505,0.459l-1.083,1.479l-0.077,2.908l1.594,2.296l1.849,1.53l2.041,0.816l2.283,0.408l2.321-0.052l2.397-0.152l2.526-0.255
		l2.538,0.051l-0.242-0.714v-0.817l0.077-0.611l0.332-0.46l0.331-0.561l0.523-0.205l0.548-0.254h0.664l2.207,0.408l1.875-0.307
		l1.518-0.766l1.518-0.918l1.313-0.969l1.518-0.613l1.633-0.254l2.002,0.765l1.441-0.715l1.709-0.459l1.977-0.561l1.965-0.612
		l1.734-0.919l1.62-1.122l1.187-1.53l0.829-1.888l1.211-0.561l1.212-0.613l1.161-0.765l1.326-0.562l1.211-0.611l1.211-0.103
		l1.097,0.204l1.109,0.867l1.211,0.408l1.543,0.307l1.543-0.153l1.646-0.204l1.492-0.459l1.658-0.612l1.428-0.562l1.378-0.612
		l-0.6,1.021l0.026,1.123l0.242,0.969l0.663,1.071l0.778,0.765l1.212,0.613l1.211,0.459l1.543,0.204l1.096-1.021l1.403-0.612
		l1.518-0.255h1.684h1.633l1.76,0.152l1.76-0.152h1.734l-0.433-1.53l-0.281-1.429l-0.115-1.429l0.089-1.326v-1.429l0.306-1.326
		l0.293-1.225l0.637-1.173l2.322,0.458l1.875,1.429l1.454,1.837l1.352,2.04l1.352,1.888l1.684,1.378l1.977,0.612l2.755-0.357
		l0.548,6.581l0.332,7.143v7.347l-0.078,7.703l-0.305,7.448l-0.28,7.602l-0.217,7.347l-0.076,7.143l-5.127,160.395l-2.704,13.315
		l27.728-0.46l-2.755-234.827l-0.28-3.011l0.854-2.499l1.492-2.347l2.181-1.837l2.257-1.938l2.5-1.734l2.258-1.785l2.066-1.684
		l1.249,2.856l2.016,1.836l2.424,1.276l2.883,1.173l2.55,0.919l2.347,1.479l1.684,2.193l1.021,3.266l2.984-0.152l3.061,0.356
		l2.883,0.51l2.857,0.867l2.755,0.46l2.856,0.51l2.883,0.052l2.959-0.358l1.556,2.348l2.117,1.53l2.321,0.51l2.602,0.052
		l2.576-0.357l2.603-0.255l2.32-0.153l2.169,0.612l0.434-1.225l0.663-0.562l0.663-0.152l0.766,0.357l0.663,0.408l0.867,0.459
		l0.663,0.408l0.893,0.203l-0.586-2.092l0.076-2.04l0.408-2.245l0.408-1.989l-0.153-1.938l-0.689-1.53l-1.683-1.276l-2.959-0.663
		l-0.562-1.479l-0.765-0.562l-1.097-0.204l-1.226,0.255h-1.429l-1.224-0.051l-0.969-0.765l-0.715-1.429l-2.424,0.459l-2.065-0.153
		l-2.117-0.714l-1.862-0.97l-2.015-1.275l-1.786-1.327l-1.887-1.172l-1.863-0.817l0.639-1.684l1.07-1.071l1.2-0.918l1.53-0.356
		l1.429-0.154l1.53,0.409l1.53,0.663l1.581,1.275l0.638-0.102h0.663l0.562-0.358l0.536-0.255l0.892-0.867l0.715-1.122l4.412,0.255
		l4.516,1.021l4.516,1.122l4.515,1.123l4.387,0.458l4.516-0.356l4.362-1.633l4.438-3.265l0.562-0.562l0.459-0.562l0.204-0.561
		l0.076-0.511v-0.663v-0.561l-0.051-0.664v-0.561l-3.392,1.938l-2.705,0.255l-2.576-1.071l-2.32-1.684l-2.348-1.938l-2.32-1.479
		l-2.654-0.663l-2.933,0.97l-2.755-6.225l-1.199,0.919l-1.071,0.306l-1.097-0.051l-1.097-0.459l-1.225-0.612l-1.224-0.663
		l-1.225-0.511l-1.098-0.102l-1.684-1.938l0.766-1.326l1.072-0.766l1.198-0.715l1.53-0.356l1.301-0.459l1.53-0.307l1.302-0.51
		l1.429-0.357l1.657,0.663l2.22,0.052l2.397-0.357l2.423-0.408l2.066-0.102l1.862,0.611l1.25,1.633l0.459,2.959l1.225-0.816
		l1.198-0.102l1.225,0.152l1.199,0.562l1.122,0.51l1.224,0.766l1.072,0.766l1.352,0.611l0.026,1.99l0.968-1.479l1.072-1.326
		l0.97-1.327l1.071-1.224l0.97-1.531l0.968-1.479l0.843-1.632l0.969-1.685l0.229,0.97l0.434,1.122l0.612,0.766l0.766,0.816
		l0.663,0.562l0.994,0.663l1.021,0.611l0.994,0.663l1.071-0.356h1.429l1.429,0.204l1.556,0.511l1.225,0.611l1.326,1.071l0.918,1.225
		l0.689,1.53l4.259,0.153l4.49-0.255l4.516-0.357l4.616-0.561l4.464-0.459l4.643-0.256l4.693,0.153l4.744,0.918l2.398-0.815
		l2.831-0.562l2.984-0.867l2.831-0.919l2.194-1.377l1.479-1.633l0.306-2.346l-0.943-2.909l-1.964-0.102l-1.99,0.052l-1.887-0.103
		l-1.863,0.051l-2.065-0.051l-1.989,0.103l-2.066,0.152l-2.092,0.459l-1.734-5.306l-2.066,0.357l-2.092,0.561l-2.193,0.357
		l-2.066,0.51l-2.321,0.256l-2.193,0.051l-2.193-0.307l-2.067-0.408l-1.684-1.274l-1.657-1.276l-1.684-1.326l-1.327-1.274
		l-1.479-1.429l-1.225-1.378l-1.046-1.633l-0.663-1.53l1.632-0.255l1.786,0.408l1.632,0.663l1.812,0.816l1.734,0.663l2.016,0.459
		l1.887-0.103l2.144-0.611l0.766,0.766l0.842,0.969l0.306,0.357l0.535,0.306l0.689,0.051l0.893,0.153l2.193-4.387l1.225,1.02
		l1.479,0.714l1.505,0.562l1.658,0.407l1.556,0.307l1.557,0.408l1.53,0.255l1.557,0.765l1.504-0.765l1.429-0.918l1.301-1.021
		l1.301-0.918l1.199-0.97l1.173-0.815l1.302-0.817l1.53-0.561l0.103-1.173l0.407-1.021l0.561-0.868l0.868-0.611l0.842-0.663
		l0.995-0.357l0.867-0.306l0.893-0.052l-1.506-2.448l-0.841-0.867l1.199-0.816l1.224-1.582l0.816-1.888l1.199-0.561l1.198-0.562
		l1.199-0.765l1.301-0.613l1.199-0.561l1.224-0.153l1.098,0.204l1.122,0.868l1.198,0.459l1.557,0.255l1.53-0.103l1.607-0.255
		l1.556-0.459l1.658-0.612l1.403-0.562l1.402-0.561l-0.638,0.969l0.025,1.123l0.256,0.969l0.663,1.122l0.766,0.715l1.249,0.612
		l1.199,0.459l1.556,0.204l1.071-1.021l1.402-0.561l1.531-0.256l1.633-0.051h1.684l1.76,0.152l1.734-0.102l1.76-0.051l-0.459-1.479
		l-0.255-1.48l-0.102-1.429l0.076-1.326l-0.051-1.377l0.331-1.378l0.307-1.174l0.638-1.224l2.27,0.51l1.913,1.377l1.48,1.837
		l1.352,2.092l1.327,1.837l1.683,1.377l1.989,0.663l2.755-0.407l0.562,6.58l0.28,7.143l0.076,7.347l-0.101,7.703l-0.307,7.448
		l-0.332,7.602l-0.179,7.347l-0.076,7.143l-5.102,160.395l-2.755,13.366l27.778-0.51l-2.78-234.828l-0.28-2.959l0.842-2.551
		l1.505-2.296l2.143-1.938l2.295-1.888l2.5-1.684l2.245-1.785l2.092-1.671l1.225,2.793l2.016,1.837l2.448,1.275l2.883,1.174
		l2.524,0.918l2.347,1.53l1.685,2.144l1.045,3.264l2.959-0.152l3.061,0.408l2.883,0.459l2.856,0.867l2.755,0.51l2.857,0.459
		l2.883,0.052l2.959-0.357l1.555,2.397l2.144,1.479l2.296,0.511l2.627,0.051L800,787.33l2.628-0.256l2.296-0.153l2.193,0.613
		l0.407-1.174l0.664-0.613l0.663-0.102l0.765,0.307l0.663,0.408l0.894,0.408l0.663,0.459l0.867,0.204l-0.587-2.041l0.103-2.092
		l0.383-2.244l0.408-1.989l-0.128-1.939l-0.688-1.53l-1.658-1.276l-3.011-0.611l-0.561-1.53l-0.766-0.562l-1.096-0.204l-1.225,0.255
		l-1.429,0.052l-1.199-0.103l-1.021-0.715l-0.663-1.479l-2.424,0.511l-2.065-0.204l-2.117-0.715l-1.888-0.97l-1.989-1.274
		l-1.812-1.264l-1.888-1.224l-1.861-0.817l0.638-1.683l1.071-1.072l1.198-0.918l1.531-0.356l1.428-0.103l1.557,0.383l1.53,0.638
		l1.581,1.275l0.638-0.102h0.639l0.561-0.357l0.562-0.229l0.867-0.894l0.714-1.122l4.413,0.256l4.515,1.021l4.541,1.122l4.515,1.122
		l4.388,0.51l4.515-0.408l4.336-1.633l4.438-3.264l0.562-0.562l0.408-0.561l0.256-0.535l0.101-0.562l-0.024-0.663l-0.052-0.536
		v-0.663v-0.562l-3.393,1.939l-2.704,0.254l-2.551-1.02l-2.32-1.735l-2.348-1.938l-2.347-1.53l-2.628-0.587l-2.958,0.943
		l-2.755-6.198l-1.199,0.893l-1.071,0.357l-1.097-0.103l-1.098-0.433l-1.224-0.639l-1.225-0.663l-1.224-0.51l-1.097-0.052
		l-1.685-1.989l0.766-1.326l1.098-0.766l1.172-0.663l1.531-0.356l1.302-0.511l1.555-0.356l1.276-0.435l1.454-0.356l1.657,0.637
		l2.168,0.052l2.424-0.356l2.398-0.358l2.091-0.153l1.888,0.613l1.225,1.632l0.459,2.959l1.224-0.79l1.225-0.128l1.199,0.152
		l1.225,0.562l1.097,0.536l1.225,0.739l1.097,0.766l1.352,0.612l0.026,1.989l0.943-1.428l1.097-1.378l0.943-1.301l1.072-1.25
		l0.969-1.53l0.97-1.455l0.867-1.656l0.944-1.659l0.255,0.944l0.433,1.121l0.562,0.766l0.791,0.843l0.663,0.535l0.995,0.663
		l1.02,0.638l0.996,0.639l1.096-0.358h1.403l1.454,0.179l1.53,0.536l1.25,0.611l1.326,1.072l0.894,1.199l0.688,1.505l4.286,0.179
		l4.489-0.23l4.516-0.383l4.591-0.51l4.465-0.51l4.642-0.204l4.719,0.128l4.72,0.918l2.396-0.816l2.857-0.561l2.959-0.817
		l2.856-0.97l2.168-1.377l1.48-1.683l0.307-2.271l-0.919-2.933l-1.99-0.051h-1.989l-1.888-0.076l-1.861,0.076l-2.066-0.103
		l-1.99,0.103l-2.065,0.178l-2.092,0.434l-1.734-5.305l-2.066,0.356l-2.065,0.587l-2.22,0.383l-2.041,0.459l-2.32,0.256l-2.22,0.024
		l-2.168-0.28l-2.092-0.383l-1.658-1.301l-1.684-1.301l-1.684-1.302l-1.327-1.274l-1.479-1.402l-1.225-1.404l-1.046-1.633
		l-0.612-1.504l1.582-0.281l1.811,0.435l1.607,0.638l1.811,0.841l1.76,0.612l1.99,0.535l1.887-0.152l2.144-0.612l0.791,0.765
		l0.815,0.971l0.307,0.356l0.535,0.306l0.689,0.103l0.893,0.077l2.219-4.312l1.225,0.971l1.454,0.738l1.556,0.512l1.633,0.433
		l1.531,0.256l1.581,0.459l1.505,0.306l1.582,0.715l1.505-0.791l1.402-0.893l1.301-1.02l1.326-0.895l1.174-0.994l1.198-0.816
		l1.275-0.766l1.557-0.612l0.076-1.198l0.409-0.994l0.561-0.867l0.893-0.562l0.816-0.688l0.994-0.332l0.867-0.357l0.894-0.025
		L909.939,707.782z M353.251,580.905l3.316-1.658l-0.281,1.3l-0.166,2.629l-0.421,2.448l-0.268,2.603l-0.331,1.733l-1.684-1.913
		l-1.492-2.525l-0.242-2.27L353.251,580.905z M287.44,639.701l1.44,0.638l1.429,0.408l1.62,0.535l1.543,0.077l1.658-0.127
		l1.429-0.562l1.518-1.147l0.446-0.689l0.854-0.102l0.969,0.102l0.791,0.637l0.688,0.971l0.663,1.197l0.689,0.971l0.804,0.969
		l0.625,0.664l1.11,0.306l1.237-0.026l1.518-0.229l0.191-1.021l0.216-0.969l0.306-1.021l0.307-0.765l0.331-0.97l0.434-0.79
		l0.42-0.894l0.625-0.663l11.44,6.836l1.186-1.122l0.639-1.326l-0.026-1.53v-1.557l-0.166-1.607l0.407-1.352l1.187-1.122
		l2.207-0.459l0.995,0.076l0.982,0.103l0.778-0.127l0.879-0.129l0.741-0.356l0.752-0.357l0.765-0.562l0.994-0.434l2.067-0.025
		l2.206-0.051l2.309-0.256l2.321-0.05l2.066-0.026l2.207,0.281l1.352,0.536l-1.161,0.714l-1.072,0.893l-0.994,0.664l-0.523,1.121
		l0.141,1.276l1.096,1.888l1.161,1.504l1.429,1.097l1.543,0.715l1.657,0.409l1.659,0.101l1.836,0.052l1.76,0.102l1.913,0.152h1.403
		l2.092-0.254l2.181-0.484l2.539-0.153l2.168,0.076l1.9,0.739l1.327,1.506l0.472,1.734l-0.778,1.122l-1.62,1.326l-1.875,0.919
		l-1.02-1.837l-0.88-0.765l-1.11-0.103l-1.07,0.459l-1.212,0.357h-0.994l-1.02-0.664l-0.791-1.606l-6.53,3.393v-1.938l-0.371-1.225
		l-0.65-0.739l-0.689-0.434l-0.995-0.51l-1.02-0.461l-0.88-0.738l-0.804-1.072l-1.951,1.454l-1.798,2.092l-1.85,2.245l-1.709,2.117
		l-1.951,1.582l-1.989,0.789l-2.169-0.28l-2.347-1.505l-0.076-4.948l-2.539-0.051l-1.823,1.122l-1.518,1.684l-1.046,2.092
		l-1.289,1.684l-1.301,1.352l-1.76,0.23l-2.207-0.944l-1.518,0.383l-1.568,0.331l-1.518,0.23l-1.518,0.254l-1.646-0.076
		l-1.659-0.178l-1.759-0.332l-1.659-0.383l-4.706-4.541l-1.965,1.379l-1.951,1.121l-1.939,0.918l-1.862,0.791l-2.066,0.588
		l-1.99,0.791l-2.066,0.789l-1.964,1.123l-1.429-0.051l-1.071-0.307l-1.02-0.535l-0.663-0.637l-0.689-0.971l-0.446-0.893
		l-0.319-1.097l-0.063-0.97l-2.449,1.326l-2.653,0.842l-2.831,0.485l-2.87,0.383l-2.946,0.28l-2.512,0.587l-2.424,0.994
		l-1.811,1.709l-1.224-0.179l-0.765-0.356l-0.689-0.511l-0.446-0.561l-0.548-0.611l-0.574-0.562l-0.638-0.536l-0.803-0.229
		l0.638-1.633l3.826-1.378l3.916-1.301l3.838-1.479l3.941-1.403l3.686-1.58l3.699-1.633l3.687-1.785l3.725-1.838L287.44,639.701z
		 M414.151,740.51l-1.977-0.103l-2.015,0.051l-1.812-0.051h-1.913l-2.066-0.076l-1.977,0.152l-2.104,0.128l-2.066,0.51l-1.735-5.407
		l-2.091,0.408l-2.042,0.587l-2.231,0.356l-2.067,0.485l-2.283,0.255l-2.181,0.025l-2.231-0.28l-2.092-0.408l-1.658-1.276
		l-1.684-1.274l-1.671-1.327l-1.326-1.275l-1.466-1.428l-1.237-1.377l-0.996-1.633l-0.688-1.531l1.631-0.254l1.761,0.433
		l1.683,0.638l1.761,0.816l1.772,0.663l1.977,0.485l1.875-0.129l2.181-0.611l0.766,0.765l0.803,0.97l0.332,0.356l0.548,0.307
		l0.663,0.076l0.88,0.103l2.231-4.336l1.237,0.994l1.441,0.74l1.543,0.535l0.97,0.23l0.293,1.172l1.466,1.404l2.283-1.378
		l1.021-0.051l0.216,0.024l1.569,0.74l0.179-0.076h0.013l1.224,1.199l1.097,1.274l1.352,1.174l1.683,0.663l2.36-0.178l0.472,0.893
		l0.587,0.714l0.548,0.561l0.765,0.562l0.664,0.204l0.994,0.307h1.021l1.288,0.05l1.683,2.271l2.118,2.295l2.245,2.066l2.231,2.143
		l2.002,2.041l1.9,2.271l1.391,2.27l1.007,2.627l-1.403,1.685l-1.263,0.688l-1.327-0.332l-1.352-0.535l-1.326-0.612l-1.237-0.204
		l-0.957,0.459l-0.752,1.633l-1.709-4.999l-1.875,0.918l-1.506,0.153l-1.466-0.664l-1.327-0.866l-1.569-1.174l-1.428-0.715
		l-1.658-0.434l-1.85,0.383l-0.128,0.867l-0.395,0.663l-0.549,0.459l-0.522,0.689l-1.709-2.526l-0.485-0.433l2.831-0.587
		l2.946-0.867l2.844-0.893l2.169-1.378l1.492-1.684l0.306-2.321L414.151,740.51z M429.623,706.431l-0.867-0.434l-0.766-0.205
		l-0.995-0.076L426,706.048l-0.332,1.097l-0.599,0.765l-0.88,0.357l-0.88,0.128l-1.211-0.076l-1.109-0.103l-0.982,0.025
		l-0.867,0.229v0.536v0.562l-0.191,0.535l-0.217,0.459l-0.995,0.562h-0.88l-2.64-1.123l-2.539-0.842l-2.64-0.943l-2.538-0.715
		l-0.969-0.356l-0.243-2.5l1.263-3.443l-2.64-0.842l-2.104,0.484l-1.709,1.25l-1.454,1.658l-1.824-1.479l-2.257,1.812l-2.092,0.051
		l-1.99-1.301l-2.002-1.836l-2.015-1.838l-2.015-0.943l-1.76,0.434h-0.026l-1.3,0.256l-1.429,0.459l-0.906,0.383l-2.129-2.066
		l-0.217,1.198l0.242,1.326l0.039,0.103h-0.013l-1.288,0.23l-1.404-0.409l-1.249-0.995l1.938-2.551l0.676-1.071l2.538,0.511
		l1.519-1.25l1.875-0.893l1.849-0.816l1.952-0.357l1.99-0.255l2.066,0.051l1.989,0.204l1.978,0.638l0.803,1.199l0.88,0.842
		l1.02,0.638l0.995,0.408l0.994,0.229l0.982,0.307l1.109,0.307l1.212,0.637l2.538,0.052l2.614-0.256l2.539-0.585l2.614-0.689
		l2.283-1.174l2.398-1.225l2.041-1.479l2.066-1.328l1.429,5.664l2.513-1.225l2.614-0.28l2.513,0.179l2.563,0.484l2.423,0.408
		l2.653,0.179l2.615-0.256l2.946-0.815l0.88,0.713l0.472,0.996l-0.217,0.893l-0.42,0.994l-0.932,0.996l-0.778,1.02l-0.548,0.204
		l-0.446,0.204l-0.625,0.051l-0.549-0.102l-0.688-0.664l-0.638,1.021l-0.548,1.097l-0.727,1.098l-0.651,1.147l-0.854,0.867
		l-0.854,0.893l-0.994,0.562l-0.854,0.688l-1.02-0.434l-0.664-0.407l-0.765-0.562L429.623,706.431z M461.61,800.491l-1.046-1.07
		l-1.071-0.715l-1.353-0.103l-1.759-0.102l-1.773-0.612l-1.645-0.919l-1.685-0.968l-1.759-1.072l-1.684-0.51h-1.734l-1.633,1.021
		l-0.166,1.274l-0.358,1.021l-0.739,0.562l-0.752,0.459l-0.982,0.255l-0.97,0.307l-0.994,0.459l-0.548,0.815l-2.78-1.938
		l-2.181,0.051l-1.952,1.224l-1.633,1.889l-1.594,1.581l-1.543,0.663l-1.76-0.867l-1.824-3.01l0.191-1.021l0.332-0.867l0.306-0.969
		l0.434-0.766l0.089-1.021l0.191-0.867v-1.123l-0.026-1.07l-1.211-0.562l-0.804-0.714l-0.663-1.021l-0.688-0.919l-0.765-1.021
		l-0.919-0.51l-1.288-0.203l-1.633,0.459l-0.434,0.561l-0.216,0.766l-0.306,0.714l-0.191,0.867l-0.332,0.766l-0.331,0.765
		l-0.523,0.562l-0.561,0.663l-2.002-1.938l-1.875-2.091l-2.155-2.246l-2.002-2.244l-2.27-2.397l-2.309-2.245l-2.563-2.143
		l-2.704-1.837l-1.479,1.989l-1.709,1.226l-2.207,0.611l-2.181,0.256l-2.424-0.204l-2.449-0.153l-2.295-0.307l-2.092,0.153
		l-8.047-8.52l-1.824,1.123l-2.091,0.815l-2.283,0.459l-2.207,0.356l-2.424,0.256l-2.155,0.51l-1.951,0.817l-1.569,1.326
		l-9.731-4.898v0.663l0.026,0.867l-0.102,0.817l-0.063,0.867l-0.434,0.663l-0.331,0.663l-0.639,0.357l-0.688,0.204l-1.824,0.051
		l-1.569-0.663l-1.429-1.072l-1.351-1.173l-1.352-1.378l-1.352-1.071l-1.403-0.969l-1.199-0.153l3.954-1.479l4.438-3.252
		l0.548-0.562l0.447-0.561l0.191-0.562l0.102-0.51l-0.025-0.664v-0.561v-0.663l-0.052-0.562l-3.341,1.938l-2.756,0.256l-2.55-1.021
		l-2.321-1.733l-2.347-1.939l-2.333-1.505l-2.653-0.612l-2.946,0.943l-2.704-6.223l-1.211,0.918l-1.097,0.332l-1.083-0.078
		l-1.098-0.407l-1.237-0.663l-1.237-0.639l-1.211-0.535l-1.084-0.076l-1.709-1.965l0.778-1.326l1.071-0.766l1.211-0.713l1.543-0.332
		l1.301-0.484l1.518-0.357l1.313-0.459l1.441-0.331l1.62,0.637l2.232,0.051l2.372-0.356l2.424-0.383l2.092-0.128l1.912,0.612
		l1.199,1.633l0.498,2.959l1.186-0.816l1.211-0.103l1.187,0.18l1.25,0.535l1.096,0.511l1.212,0.766l1.109,0.764l1.313,0.639
		l0.026,1.964l0.994-1.454l1.072-1.352l0.969-1.326l1.072-1.226l0.969-1.53l0.956-1.479l0.83-1.632l0.994-1.684l0.217,0.994
		l0.472,1.098l0.548,0.765l0.778,0.816l0.689,0.561l0.994,0.663l1.021,0.613l0.981,0.663l1.084-0.357l1.429-0.025l1.428,0.179
		l1.543,0.561l1.225,0.639l1.339,1.046l0.88,1.198l0.727,1.505l4.272,0.179l4.49-0.229l4.49-0.408l4.604-0.484l4.49-0.535
		l1.084-0.026l0.178,0.511l0.357,0.815l0.561,0.996l0.358,0.866l0.216,0.919l-1.62,0.663l-1.543,0.255l-1.631-0.103l-1.569-0.076
		l-1.518-0.076l-1.186,0.459l-1.097,0.791l-0.613,1.556v1.071l0.447,1.224l0.472,1.098l0.791,1.173l0.664,0.97l1.02,0.995
		l0.994,0.943l1.021,0.982l2.946-0.052l3.086,0.307l2.87,0.459l2.857,0.715l2.653,0.611l2.755,0.715l2.641,0.51l2.767,0.612
		l-0.254-0.663v-0.511v-0.561l0.332-0.357l0.522-0.765l0.663-0.459l1.875,0.611l1.542,0.97l1.212,0.97l1.262,1.174l0.996,0.968
		l1.211,1.071l1.467,0.97l1.9,1.072l7.193-1.225l-1.161,3.214l0.382,2.448l1.352,1.378l2.092,1.07l2.424,0.409l2.87,0.459
		l2.538,0.408l2.309,0.714l1.326-0.969l1.403,0.051l1.211,0.612l1.25,0.866l1.237,0.664l1.187,0.408l1.313-0.459l1.377-1.327
		l17.805,19.233l-1.505,0.459l-1.109-0.204l-1.02-0.766l-0.664-1.07L461.61,800.491z M473.854,678.754l-0.663,1.557l-0.829,1.428
		l-1.301,1.122l-1.62,0.919l-2.983,0.688l-2.398-0.178l-2.194-0.816l-1.798-1.402l-1.683-1.837l-1.314-1.861l-1.492-1.938
		l-1.237-1.735l-0.191,0.894l-0.446,0.867l-0.739,0.79l-0.893,0.663l-1.072,0.357l-0.994,0.025l-0.982-0.332l-0.88-0.51
		l-2.679-1.174l-2.422-0.714l-2.539-0.739l-2.422-0.511l-2.64-0.484l-2.437-0.51l-2.538-0.74l-2.424-0.688l-0.293,0.867
		l-0.089,1.174l-0.216,1.121l-0.191,1.225l-0.663,0.867l-0.741,0.689l-1.083,0.127l-1.569-0.306l-5.535-3.087l-5.624-1.453
		l-5.931-0.434l-5.944,0.229l-5.93-0.026l-5.816-0.229l-5.509-1.226l-5.242-2.652l-2.194,2.347l-2.678-0.051l-2.309-0.281
		l-2.295-0.637l-2.333-0.511l-2.322-0.611l-2.283-0.204l-2.422,0.178l-2.322,0.816l-0.166,1.76l-1.046,0.103l-0.969,0.459
		l-0.88,0.663l-0.625,1.021l-0.639,0.97l-0.548,1.121l-0.638,0.996l-0.548,1.096h-4.387l-4.272,0.715l-4.248,1.173l-0.548,0.256
		l-1.811-0.97l0.714,1.429l-2.283,0.994l-4.031,1.812l-3.698,2.169l-3.687,2.372l-3.366,2.448l-0.791-1.071l-1.083-0.408
		l-1.352-0.203l-1.313,0.024l-1.187-0.076l-0.88-0.331l-0.357-0.842l0.332-1.582l2.116-2.551l2.513-2.016l2.474-1.811l2.844-1.353
		l2.831-1.147l2.946-0.816l3.15-0.484l3.444-0.076l-7.308-1.939l2.04-4.029l2.781-2.755l3.291-2.144l3.686-1.402l3.827-0.943
		l4.055-0.408l3.941-0.153l3.966,0.153l0.778-1.455l1.148-1.045l1.186-0.74l1.441-0.484l1.402-0.562l1.543-0.459l1.289-0.587
		l1.416-0.587l2.895-0.025l2.832,0.944l2.703,1.582l2.755,1.938l2.45,1.377l2.512,0.918l2.449-0.356l2.372-1.684l1.021-0.128
		l0.829-0.331l0.523-0.894l0.548-0.894l0.191-1.224l0.191-1.198l0.229-1.225l0.293-0.893l-0.79-1.377l-0.663-1.633l-0.485-1.199
		l1.059,0.562l1.428,1.606v-0.995l3.532,1.25l3.533,1.148l3.52,0.714l3.635,0.28l3.533-0.407l3.469-1.072l3.583-1.683l3.584-2.348
		l1.045,2.704l1.926,1.734l2.296,1.174l2.563,0.918l2.092,0.842l1.759,1.505l0.83,2.296l-0.28,3.52l0.255,2.092l0.689,1.403
		l0.905,0.739l1.327,0.536l1.428-0.025l1.633-0.128l1.646-0.229l1.748-0.281l0.625-2.219l1.084-1.123l1.429-0.561l1.733,0.204
		l1.659,0.179l1.785,0.535l1.518,0.178l1.429-0.024l2.653,1.173l2.563,1.607l2.449,1.377l2.423,1.505l2.45,1.046l2.652,0.689
		l2.832,0.204l3.316-0.383l0.433,1.505l0.358,1.657l0.063,1.761L473.854,678.754z M473.573,636.921l-1.594-1.964l-1.543-1.378
		l-1.684-1.071l-1.518-0.638l-1.9-0.511l-1.85-0.076l-2.117-0.051l-2.181,0.357l-0.076,0.867v0.969l-0.089,0.766l-0.076,0.893
		l-0.447,0.689l-0.433,0.765l-0.637,0.562l-0.778,0.561l-2.309-0.842l-2.092-0.943l-2.13-1.174l-2.092-1.07l-2.231-1.174
		l-2.092-0.943l-2.207-0.842l-2.232-0.408l-0.191,0.662l-0.42,0.664l-0.663,0.561l-0.293,0.791l-1.875-1.504l-1.824-1.607
		l-2.015-1.863l-2.002-1.479l-2.207-1.404l-2.207-0.841l-2.423-0.179l-2.538,0.943l-0.715,0.868l-0.854,0.587l-0.663,0.025
		l-0.548,0.102h-0.549l-0.561,0.127l-0.905-1.197l-0.804-1.174l-0.994-1.225l-0.906-1.072l-1.096-1.07l-1.211-0.664l-1.467-0.28
		l-1.402,0.229l-0.115,0.562v0.562l0.14,0.535l0.141,0.638l-0.115,0.894l-0.548,0.79l-1.735,0.025l0.141,1.454l-0.217,1.07
		l-0.637,0.792l-0.854,0.435l-1.212,0.356l-1.109,0.459l-0.957,0.562l-0.637,0.893l-0.996-0.943l-0.931-0.894l-0.995-1.097
		l-0.803-0.919l-0.995-1.02l-0.981-0.612l-1.135-0.434l-1.187,0.128l-1.594,2.652l-8.138-6.76l-0.076,1.76l-0.306,1.888
		l-0.854,1.633l-0.957,1.785l-1.377,1.352l-1.518,1.25l-1.658,0.766l-1.62,0.587l-2.983-1.709l-2.807-0.715l-2.844-0.076
		l-2.615,0.383l-2.729,0.382l-2.755,0.485l-2.729,0.179l-0.906-0.076l0.715-0.74l0.994-0.893l1.289-0.459l1.352,0.076l1.734,0.867
		l1.326-0.383l0.969-0.867l0.625-1.429l0.638-1.454l0.522-1.555l0.969-1.225l1.429-0.663l2.067,0.152l2.257-1.989l6.734,5.79
		l0.498-0.894l0.548-0.766l0.434-0.968l0.522-0.919l0.421-0.867l0.766-0.664l0.879-0.459l1.187-0.127l-0.88-1.199l-1.237-1.274
		l-1.467-1.658l-1.122-1.505l-0.778-1.761l-0.166-1.53l0.854-1.556l2.322-1.147l0.076-1.761l0.829-0.97l1.187-0.918l1.518-0.459
		l1.352-0.689l1.097-0.791l0.28-1.326l-0.255-1.733l0.638-0.894l0.765-0.791l0.663-0.637l0.613-0.689l0.331-0.766l0.306-0.789
		v-0.894l-0.14-0.97l-1.773-0.076l-1.837,0.025l-2.181-0.051l-2.015-0.103l-2.091-0.51l-1.608-0.714l0.753-0.664l1.875-0.918
		l2.398-0.256l0.803,1.302l0.996,0.536l0.981-0.026l1.212-0.331l1.186-0.689l1.302-0.561l1.351-0.484l1.48,0.102l5.548,0.97
		l5.701,0.791l5.841,0.586l5.841,0.638l5.459,0.791l5.573,1.428l5.063,2.016l4.884,2.984l4.49,5.842l5.676,4.311l6.083,3.061
		l6.312,2.756l5.766,2.856l5.229,3.647l3.813,4.975l2.333,7.219L473.573,636.921z M533.466,715.817l1.454,0.612l1.403,0.407
		l1.683,0.537l1.531,0.076l1.658-0.128l1.402-0.587l1.531-1.122l0.407-0.663l0.894-0.127l0.969,0.127l0.791,0.612l0.688,0.97
		l0.663,1.198l0.688,0.995l0.791,0.969l0.663,0.663l1.097,0.28l1.225-0.024l1.53-0.229l0.204-0.994l0.204-0.971l0.307-0.994
		l0.28-0.791l0.331-0.995l0.435-0.765l0.383-0.894l0.688-0.663l11.428,6.811l1.173-1.097l0.639-1.327l-0.026-1.529v-1.582
		l-0.153-1.633l0.408-1.326l1.2-1.122l2.168-0.459l0.994,0.103l0.995,0.102l0.739-0.153l0.894-0.103l0.79-0.356l0.765-0.356
		l0.741-0.562l0.994-0.46l2.092-0.025l2.193-0.025l2.296-0.254l2.321-0.053l2.066-0.05l2.193,0.306l1.021,0.408l0.459,0.307
		l0.587,0.152l1.683,1.275l0.204-0.715l1.531,0.408l2.066-1.326l2.271-1.046l2.27-0.917l2.423-0.485l2.398-0.459l2.55-0.281
		l2.526-0.255l2.627-0.127l-0.204,1.733l0.587,1.735l0.919,1.734l1.249,1.861l1.225,1.633l1.225,1.734l0.484,0.894l-0.638,0.562
		l-1.071,1.428l-0.944,1.862l-1.147,1.685l-1.225,1.657l-1.632,1.378l-1.837,0.893l-0.995-1.836l-0.893-0.741l-1.147-0.127
		l-1.072,0.485l-1.173,0.356h-0.995l-0.995-0.638l-0.79-1.633l-6.557,3.393l-0.024-1.964l-0.357-1.199l-0.663-0.739l-0.688-0.434
		l-0.995-0.536l-0.97-0.433l-0.892-0.766l-0.791-1.072l-1.964,1.48l-1.812,2.092l-1.862,2.244l-1.709,2.117l-1.913,1.556
		l-1.99,0.816l-2.219-0.28l-2.321-1.505l-0.102-4.948l-2.5-0.052l-1.837,1.122l-1.53,1.684l-1.046,2.092l-1.301,1.684l-1.275,1.352
		l-1.761,0.229l-2.219-0.943l-1.53,0.356l-1.53,0.357l-1.53,0.229l-1.531,0.256l-1.658-0.103l-1.633-0.203l-1.785-0.256
		l-1.633-0.434l-4.692-4.515l-1.965,1.327l-1.938,1.147l-1.99,0.892l-1.861,0.817l-2.066,0.586L537.241,730l-2.066,0.816
		l-1.964,1.147l-1.429-0.076l-1.097-0.307l-0.995-0.535l-0.714-0.689l-0.663-0.918l-0.459-0.893l-0.358-1.097v-0.97l-2.498,1.326
		l-2.603,0.817l-2.857,0.509l-2.856,0.357l-2.959,0.307l-2.5,0.561l-2.397,1.021l-1.85,1.709l-1.211-0.179l-0.778-0.358
		l-0.663-0.535l-0.434-0.535l-0.587-0.663l-0.574-0.511l-0.663-0.561l-0.74-0.204l0.6-1.633l3.84-1.377l3.929-1.302l3.825-1.479
		l3.902-1.404l3.75-1.581l3.673-1.632l3.725-1.812l3.698-1.812L533.466,715.817z M692.738,760.661l-0.484,0.356l-0.586,0.307
		l-0.843,0.152l-0.663,0.103l-0.766,0.357l-0.305,0.51l-0.996-0.281l-0.815-0.535l-0.766-0.638l-0.663-0.536l-0.791-0.663
		l-0.663-0.51l-0.766-0.306h-0.893l-2.575,2.015l-0.919-0.944l-0.893-0.765l-0.995-0.766l-0.867-0.663l-1.122-0.611l-0.996-0.409
		l-1.224-0.433l-1.097-0.23l0.562,1.557l0.561,1.505l0.383,1.326l0.255,1.429v1.198l0.025,1.326l-0.306,1.302l-0.307,1.568
		l-0.866,0.561l-0.766,0.664l-0.765,0.459l-0.741,0.459h-0.867l-0.79-0.102l-0.766-0.307l-0.688-0.611l0.306-1.685l0.077-1.415
		l-0.103-1.326l-0.255-0.996l-0.688-0.994l-0.867-0.612l-1.225-0.638l-1.326-0.204l-1.403,0.995l-1.097,0.153l-0.994-0.536
		l-0.92-0.893l-0.994-0.842l-0.867-0.434l-0.893,0.255l-0.842,1.479l-1.353-1.888l-1.198-0.51h-1.225l-1.071,0.714l-1.225,0.663
		l-1.173,0.562h-1.225l-1.097-0.714h-1.557l-1.3,0.28l-1.302,0.331l-1.198,0.587l-1.327,0.535l-1.173,0.689l-1.225,0.688
		l-1.174,0.663l0.23,0.562l0.331,0.638l0.229,0.663l0.357,0.663l0.127,0.639l0.205,0.65l-0.077,0.765v1.021l-0.51,0.612
		l-0.791,0.051l-2.704-1.938l-1.25,1.326l-1.428-0.51l-0.817-0.714l-0.433-1.123l-0.255-1.109l-0.358-1.174l-0.433-0.867
		l-0.791-0.638h-0.204l0.46-0.867l1.733-2.576l1.913-2.321l2.398-2.015l-0.714-1.633l-0.663-1.326l-0.894-1.199l-0.918-0.944
		l-1.123-0.969l-1.198-0.765l-1.301-0.613l-1.353-0.408l-3.291,0.025l-2.524,1.046l-2.168,1.684l-1.709,2.22l-1.863,2.117
		l-1.683,2.22l-2.168,1.811l-2.603,1.122l-0.484-1.862l-0.383-1.633l-0.331-1.632l-0.357-1.428l-0.586-1.506l-0.435-1.326
		l-0.791-1.301l-0.815-1.198l-1.301,0.152l-0.97,0.433l-0.894,0.689l-0.637,0.97l-0.663,1.02l-0.511,1.098l-0.638,0.994
		l-0.535,1.123l-4.362-0.025l-4.311,0.739l-4.235,1.174l-3.928,1.709l-4.03,1.811l-3.698,2.168l-3.699,2.373l-3.367,2.448
		l-0.765-1.07l-1.098-0.409l-1.326-0.204h-1.326l-1.25-0.05l-0.842-0.333l-0.357-0.893l0.307-1.53l2.143-2.551l2.5-1.99l2.5-1.837
		l2.831-1.376l2.831-1.148l2.959-0.791l3.163-0.51l3.393-0.052l-7.27-1.938l2.016-4.03l2.806-2.755l3.239-2.168l3.75-1.404
		l3.801-0.918l4.056-0.408l3.954-0.152l3.953,0.152l0.739-1.479l1.199-0.97l1.173-0.816l1.429-0.459l1.454-0.612l1.505-0.435
		l1.302-0.586l1.429-0.561l2.856-0.052l2.856,0.944l2.653,1.582l2.779,1.964l2.475,1.352l2.525,0.944l2.398-0.357l2.396-1.685
		l0.996-0.152l0.893-0.307l0.51-0.917l0.511-0.867l0.204-1.225l0.229-1.199l0.204-1.225l0.281-0.867l-0.766-1.429l-0.688-1.657
		l-0.689-1.735l-0.688-1.505l-1.122-1.403l-1.225-0.766l-1.761-0.179l-2.065,0.92l-1.122-0.741l-0.562-0.765l-0.128-1.021
		l0.179-0.867l0.128-0.356l0.076,0.203l1.505,0.205l1.658-0.103l1.76-0.255l1.888-0.256l1.606-0.254l1.658,0.51l1.581,1.07
		l1.327,2.194l-0.638,0.306l-0.204,0.357l-0.229,0.434l0.051,0.434v0.766v0.663l3.418,1.582l-0.97,1.224l-0.407,1.225l-0.103,1.123
		l0.255,1.07l0.459,0.868l0.868,0.994l1.021,0.536l1.326,0.611l1.836-0.713l1.888-0.664l1.734-0.688l1.735-0.356l1.633-0.23
		l1.759,0.152l1.787,0.741l1.785,1.505l2.04,2.601l1.989,2.935l2.271,2.831l2.474,2.806l2.525,2.143l3.111,1.581l3.444,0.613
		l4.03-0.409l1.479,2.194l1.454,1.837l1.479,1.479l1.657,1.327l1.633,0.816l1.812,0.97l1.938,0.765l2.245,0.714l0.025,0.867
		L692.738,760.661z M709.242,715.767l-1.02-1.071l-1.122-0.766l-1.328-0.052l-1.733-0.076l-1.786-0.637l-1.657-0.944l-1.659-0.995
		l-1.785-1.046l-1.658-0.509l-1.733,0.024l-1.659,1.021l-0.178,1.326l-0.307,0.97l-0.766,0.562l-0.79,0.459l-0.944,0.254
		l-0.969,0.332l-0.995,0.485l-0.562,0.765l-2.78-1.938h-2.168l-1.964,1.276l-1.633,1.887l-1.582,1.582l-1.53,0.715l-1.785-0.868
		l-1.785-3.062l0.178-0.994l0.307-0.893l0.331-0.97l0.408-0.791l0.103-0.97l0.178-0.893v-1.07l-0.025-1.123l-1.198-0.536
		l-0.815-0.739l-0.664-0.995l-0.688-0.943l-0.766-0.995l-0.867-0.535l-1.353-0.179l-1.632,0.434l-0.408,0.561l-0.229,0.791
		l-0.332,0.664l-0.203,0.892l-0.281,0.766l-0.332,0.766l-0.535,0.561l-0.51,0.663l-2.042-1.938l-1.912-2.04l-2.117-2.297
		l-2.016-2.244l-2.244-2.397l-2.347-2.245l-2.551-2.143l-2.679-1.836l-1.479,1.99l-1.76,1.224l-2.143,0.612l-2.245,0.255
		l-2.372-0.179l-2.449-0.179l-2.321-0.306l-1.173,0.103l-0.408-0.587l-1.225-1.275l-1.479-1.658l-1.097-1.48l-0.816-1.759
		l-0.153-1.557l0.868-1.53l2.27-1.148l0.076-1.76l0.894-0.994l1.174-0.894l0.739-0.229l0.97,0.943l1.02,0.971l2.985-0.053
		l3.06,0.281l2.883,0.484l2.807,0.74l2.679,0.586l2.755,0.715l2.652,0.51l2.779,0.613l-0.255-0.638v-0.536l-0.025-0.562l0.307-0.306
		l0.561-0.816l0.663-0.459l1.863,0.611l1.555,0.996l1.226,0.969l1.249,1.199l0.995,0.943l1.225,1.098l1.454,0.943l1.861,1.046
		l7.245-1.2l-1.148,3.189l0.357,2.449l1.352,1.377l2.092,1.07l2.449,0.383l2.831,0.485l2.551,0.408l2.322,0.715l1.274-0.97
		l1.429,0.051l1.25,0.663l1.224,0.842l1.2,0.638l1.224,0.408l1.275-0.459l1.428-1.326l17.78,19.233l-1.506,0.459l-1.097-0.205
		l-0.995-0.766l-0.688-1.07L709.242,715.767z"/>
	<polygon fill="#231F20" points="839.104,663.117 840.712,661.434 832.141,665.209 	"/>
</g>
</svg>
