<?xml version="1.0" encoding="utf-8"?>
<!-- Generator: Adobe Illustrator 15.0.0, SVG Export Plug-In . SVG Version: 6.00 Build 0)  -->
<!DOCTYPE svg PUBLIC "-//W3C//DTD SVG 1.1//EN" "http://www.w3.org/Graphics/SVG/1.1/DTD/svg11.dtd">
<svg version="1.1"
	 id="Layer_1" xmlns:inkscape="http://www.inkscape.org/namespaces/inkscape" inkscape:version="0.48.2 r9819" sodipodi:docname="glyphs.svg" xmlns:sodipodi="http://sodipodi.sourceforge.net/DTD/sodipodi-0.dtd" xmlns:svg="http://www.w3.org/2000/svg" xmlns:rdf="http://www.w3.org/1999/02/22-rdf-syntax-ns#" xmlns:cc="http://creativecommons.org/ns#" xmlns:dc="http://purl.org/dc/elements/1.1/"
	 xmlns="http://www.w3.org/2000/svg" xmlns:xlink="http://www.w3.org/1999/xlink" x="0px" y="0px" width="1000px" height="1000px"
	 viewBox="0 0 1000 1000" enable-background="new 0 0 1000 1000" xml:space="preserve">
<sodipodi:namedview  inkscape:pageopacity="0" inkscape:cx="1152.5424" inkscape:window-y="0" gridtolerance="10" inkscape:window-maximized="0" showgrid="false" pagecolor="#ffffff" inkscape:window-height="760" inkscape:cy="330.50847" inkscape:pageshadow="2" bordercolor="#666666" inkscape:current-layer="Layer_1" objecttolerance="10" borderopacity="1" guidetolerance="10" inkscape:window-width="1021" inkscape:window-x="0" inkscape:zoom="0.236" id="namedview3071">
	</sodipodi:namedview>
<path fill-rule="evenodd" clip-rule="evenodd" d="M918.926,922.271L643.977,658.063l275.184-235.61
	c1.555,4.876,2.639,9.965,2.639,15.335v468.369C921.799,911.812,920.645,917.159,918.926,922.271z M572.459,655.92l-72.483,58.984
	l-72.294-58.843l-36.701-29.847L114.5,389.545c4.546-1.366,9.259-2.309,14.229-2.309h742.54c4.971,0,9.684,0.943,14.205,2.309
	l-276.34,236.529L572.459,655.92z M81.074,922.271c-1.719-5.09-2.874-10.437-2.874-16.114V437.788c0-5.37,1.084-10.459,2.639-15.335
	l275.326,235.728L81.074,922.271z M499.976,775.231l107.323-87.322l277.609,266.657c-4.381,1.225-8.881,13.097-13.639,13.097
	h-742.54c-4.736,0-9.259-11.872-13.64-13.097l277.753-266.516L499.976,775.231z"/>
</svg>
